<?xml version="1.0" encoding="utf-8"?>
<!-- Generator: Adobe Illustrator 16.0.0, SVG Export Plug-In . SVG Version: 6.00 Build 0)  -->
<svg version="1.2" baseProfile="tiny" id="Layer_1" xmlns="http://www.w3.org/2000/svg" xmlns:xlink="http://www.w3.org/1999/xlink"
	 x="0px" y="0px" width="200px" height="200px" viewBox="0 0 200 200" xml:space="preserve">
<g display="none">
	<circle display="inline" fill="none" stroke="#F69346" stroke-miterlimit="10" cx="100.493" cy="99.494" r="98.493"/>
	<g display="inline">
		<path fill="#F69346" d="M120.756,91.18V77.494c0-4.227,3.422-7.648,7.648-7.648h16.301c2.818,0,5.436,1.609,6.844,4.228
			l7.045,13.685c1.408,2.416,1.207,5.233-0.203,7.446c-1.408,2.215-4.023,3.624-6.641,3.624h-23.146
			C124.178,98.828,120.756,95.406,120.756,91.18z M144.705,74.073h-16.102c-2.01,0-3.621,1.609-3.621,3.622V91.38
			c0,2.014,1.611,3.622,3.621,3.622h23.146c1.408,0,2.617-0.604,3.221-1.809c0.604-1.209,0.604-2.417,0-3.624l-7.045-13.686
			c-0.604-1.209-1.811-2.013-3.221-2.013V74.073z"/>
		<path fill="#F69346" d="M120.555,137.872c0-9.057,7.246-16.302,16.303-16.302s16.301,7.245,16.301,16.302
			s-7.244,16.303-16.301,16.303C128.002,154.175,120.555,146.728,120.555,137.872z M124.58,137.872
			c0,6.843,5.434,12.277,12.277,12.277c6.842,0,12.277-5.435,12.277-12.277s-5.436-12.276-12.277-12.276
			C130.215,125.596,124.58,131.029,124.58,137.872z"/>
		<path fill="#F69346" d="M40.854,137.872c0-9.057,7.247-16.302,16.302-16.302c9.057,0,16.303,7.245,16.303,16.302
			s-7.247,16.303-16.303,16.303C48.101,154.175,40.854,146.728,40.854,137.872z M44.88,137.872c0,6.843,5.434,12.277,12.277,12.277
			c6.844,0,12.277-5.435,12.277-12.277S64,125.596,57.157,125.596C50.314,125.596,44.88,131.029,44.88,137.872z"/>
		<circle fill="#F69346" cx="136.857" cy="137.873" r="4.025"/>
		<circle fill="#F69346" cx="57.157" cy="137.873" r="4.025"/>
		<path fill="#F69346" d="M23.345,132.035V65.62c0-4.228,3.421-7.648,7.648-7.648H151.75c2.617,0,5.232,1.609,6.641,4.024
			l19.523,34.618c0.604,1.208,1.006,2.414,1.006,3.823v31.8c0,4.227-3.42,7.647-7.646,7.647h-22.139v-2.013
			c0-6.843-5.436-12.276-12.277-12.276c-6.844,0-12.277,5.434-12.277,12.276v2.013H69.434v-2.013
			c0-6.843-5.434-12.276-12.277-12.276c-6.843,0-12.277,5.434-12.277,12.276v2.013H31.194
			C26.968,139.885,23.345,136.464,23.345,132.035z M57.358,121.57c8.252,0,15.095,6.239,16.101,14.289h47.498
			c1.006-8.05,7.85-14.289,16.102-14.289s15.094,6.239,16.1,14.289h18.316c2.012,0,3.623-1.609,3.623-3.622v-31.8
			c0-0.604,0-1.209-0.404-1.812l-19.521-34.617c-0.604-1.005-1.811-1.811-3.221-1.811H31.194c-2.012,0-3.623,1.61-3.623,3.622
			v66.417c0,2.013,1.61,3.622,3.623,3.622h9.862C42.063,127.81,49.106,121.57,57.358,121.57z"/>
		<path fill="#F69346" d="M59.774,52.135c1.408-2.414,4.025-3.824,6.641-3.824h17.51c2.616,0,5.232,1.41,6.642,3.824l5.836,9.861
			H53.937L59.774,52.135z M87.145,54.148c-0.805-1.208-2.013-1.813-3.22-1.813h-17.51c-1.408,0-2.616,0.604-3.22,1.813l-2.214,3.823
			h28.378L87.145,54.148z"/>
		<path fill="#F69346" d="M52.125,106.475l0.201,3.625c0.201,2.012,2.012,3.622,4.025,3.622h37.637c2.012,0,3.823-1.61,4.024-3.622
			l0.201-3.625c0-1.408-0.805-2.213-2.013-2.213H54.138C52.931,104.262,52.125,105.066,52.125,106.475z"/>
		<path fill="#F69346" d="M53.131,90.776c0.605,0.806,1.41,1.208,2.416,1.208h39.044c1.007,0,2.013-0.402,2.617-1.208
			c0.604-0.805,0.805-1.811,0.604-2.816C96.001,78.902,86.34,72.462,75.07,72.462c-11.069,0-20.731,6.44-22.743,15.498
			C52.125,89.168,52.327,90.174,53.131,90.776z M92.982,88.16c0-0.402,0.403-0.805,0.805-0.805c0.402,0,0.805,0.402,0.805,0.805
			c0,0.403-0.403,0.806-0.805,0.806C93.385,88.966,92.982,88.563,92.982,88.16z M87.347,85.946c0-0.401,0.402-0.804,0.804-0.804
			c0.403,0,0.806,0.402,0.806,0.804c0,0.402-0.402,0.805-0.806,0.805C87.749,86.751,87.347,86.349,87.347,85.946z M85.736,79.908
			c0-0.402,0.402-0.805,0.805-0.805c0.402,0,0.805,0.402,0.805,0.805s-0.403,0.806-0.805,0.806
			C85.938,80.714,85.736,80.311,85.736,79.908z M81.913,89.168c0-0.403,0.402-0.807,0.805-0.807c0.403,0,0.806,0.403,0.806,0.807
			c0,0.401-0.402,0.804-0.806,0.804C82.315,89.972,81.913,89.569,81.913,89.168z M81.107,83.33c0-0.403,0.403-0.805,0.806-0.805
			s0.805,0.401,0.805,0.805c0,0.402-0.402,0.805-0.805,0.805S81.107,83.732,81.107,83.33z M78.491,77.292
			c0-0.402,0.402-0.805,0.806-0.805c0.402,0,0.805,0.402,0.805,0.805c0,0.403-0.403,0.804-0.805,0.804
			C78.893,78.096,78.692,77.695,78.491,77.292z M74.466,86.551c0-0.402,0.402-0.805,0.805-0.805c0.402,0,0.805,0.402,0.805,0.805
			c0,0.401-0.403,0.805-0.805,0.805C74.868,87.355,74.466,87.154,74.466,86.551z M73.661,80.514c0-0.404,0.403-0.806,0.805-0.806
			c0.402,0,0.805,0.401,0.805,0.806c0,0.402-0.403,0.805-0.805,0.805C74.064,81.318,73.862,81.116,73.661,80.514z M68.025,83.732
			c0-0.402,0.402-0.806,0.805-0.806c0.402,0,0.805,0.403,0.805,0.806s-0.402,0.806-0.805,0.806
			C68.428,84.538,68.025,84.135,68.025,83.732z M65.007,88.765c0-0.403,0.402-0.805,0.805-0.805c0.402,0,0.804,0.401,0.804,0.805
			s-0.402,0.805-0.804,0.805C65.409,89.569,65.007,89.369,65.007,88.765z M64.202,78.299c0-0.401,0.402-0.805,0.805-0.805
			c0.402,0,0.805,0.403,0.805,0.805c0,0.402-0.403,0.805-0.805,0.805C64.604,79.104,64.402,78.902,64.202,78.299z M59.371,83.33
			c0-0.403,0.403-0.805,0.805-0.805s0.805,0.401,0.805,0.805c0,0.402-0.402,0.805-0.805,0.805S59.371,83.732,59.371,83.33z
			 M55.95,88.361c0-0.401,0.402-0.806,0.804-0.806s0.806,0.404,0.806,0.806c0,0.403-0.403,0.807-0.806,0.807
			C56.352,89.168,56.151,88.966,55.95,88.361z"/>
		<path fill="#F69346" d="M52.327,100.64c0,1.207,1.007,2.212,2.214,2.212H95.8c1.208,0,2.213-1.005,2.213-2.212
			c0-1.208-1.006-2.216-2.213-2.216H54.339C53.333,98.424,52.327,99.432,52.327,100.64z"/>
		<path fill="#F69346" d="M51.522,97.419c-0.403-0.201-0.604-0.805-0.403-1.209c0.806-1.608,2.818-2.213,3.02-2.213
			c2.415-0.604,5.233,1.207,5.837,1.609c1.408,0.604,3.42-0.402,4.226-1.005c3.421-2.215,7.044,0,7.245,0
			c3.421,2.013,6.441,0.2,6.642,0.2c4.83-2.615,9.056,0,9.66,0.402c2.214,1.006,3.019,0.202,4.427-0.603
			c1.611-1.007,3.624-2.215,7.044,0c0.403,0.2,0.403,0.805,0.202,1.207c-0.202,0.401-0.806,0.401-1.208,0.201
			c-2.415-1.611-3.623-0.806-5.232,0c-1.408,1.006-3.623,2.214-6.038,0.604c0,0-4.025-2.617-8.051-0.404
			c-0.201,0-4.227,2.214-8.453-0.2c-0.202-0.201-3.019-1.812-5.434-0.201c-0.202,0-3.421,2.213-6.038,1.007
			c-0.202,0-3.019-1.813-4.428-1.409c-0.403,0.2-1.61,0.604-2.013,1.409C52.327,97.016,51.925,97.419,51.522,97.419z"/>
	</g>
</g>
<circle display="none" fill="none" stroke="#F69346" stroke-miterlimit="10" cx="100.621" cy="99.494" r="98.494"/>
<g display="none">
	<g display="inline">
		<path fill="#F69346" d="M54.406,116.824l2.87-4.389l3.039-1.688c0.506-0.337,0.337-1.013-0.338-1.013H20.983
			c-0.506,0-0.844,0.844-0.337,1.013l3.038,1.688l2.87,4.389c0.337,0.506,1.013,0.844,1.688,0.844h24.477
			C53.394,117.668,54.068,117.33,54.406,116.824z"/>
		<path fill="#F69346" d="M34.656,105.177c0.338,0.338,0.506,0.507,0.506,0.507c0.169,0.169,0.506,0.337,1.013,0.169
			c0.338-0.169,0.507-0.507,0.338-0.677l0,0c0,0-0.168-0.168-0.338-0.506c-0.168-0.337-0.337-0.675-0.506-1.182
			c-0.168-0.506-0.168-1.013,0-1.519c0.169-0.507,0.506-1.183,0.844-1.857s0.844-1.181,1.182-2.025c0.338-0.675,0.338-1.519,0-2.194
			c-0.169-0.675-0.506-1.013-0.844-1.351c-0.338-0.337-0.506-0.506-0.506-0.506c-0.169-0.169-0.676-0.169-1.013-0.169
			c-0.338,0.169-0.507,0.506-0.338,0.675l0,0c0,0,0.168,0.169,0.168,0.338c0.169,0.169,0.338,0.676,0.338,1.013
			c0.168,0.507,0,1.014-0.168,1.52c-0.169,0.507-0.676,1.181-1.182,1.856c-0.337,0.675-0.844,1.351-0.844,2.194
			c-0.169,0.844,0,1.52,0.337,2.026C33.981,104.502,34.319,105.008,34.656,105.177z"/>
		<path fill="#F69346" d="M39.551,105.177c0.338,0.338,0.507,0.507,0.507,0.507c0.168,0.169,0.506,0.337,1.013,0.169
			c0.337-0.169,0.506-0.507,0.337-0.677l0,0c0,0-0.168-0.168-0.337-0.506c-0.169-0.337-0.337-0.675-0.506-1.182
			c-0.169-0.506-0.169-1.013,0-1.519c0.169-0.507,0.506-1.183,0.844-1.857c0.338-0.675,0.844-1.181,1.182-2.025
			c0.338-0.675,0.338-1.519,0-2.194c-0.168-0.675-0.506-1.013-0.844-1.351c-0.338-0.337-0.506-0.506-0.506-0.506
			c-0.169-0.169-0.675-0.169-1.013-0.169c-0.338,0.169-0.506,0.506-0.338,0.675l0,0c0,0,0.169,0.169,0.169,0.338
			c0.168,0.169,0.337,0.676,0.337,1.013c0.169,0.507,0,1.014-0.168,1.52c-0.169,0.507-0.676,1.181-1.182,1.856
			c-0.337,0.675-0.844,1.351-0.844,2.194c-0.168,0.844,0,1.52,0.338,2.026C38.876,104.502,39.383,105.008,39.551,105.177z"/>
		<path fill="#F69346" d="M44.616,105.177c0.338,0.338,0.506,0.507,0.506,0.507c0.169,0.169,0.506,0.337,1.013,0.169
			c0.338-0.169,0.506-0.507,0.338-0.677l0,0c0,0-0.169-0.168-0.338-0.506c-0.169-0.337-0.338-0.675-0.506-1.182
			c-0.168-0.506-0.168-1.013,0-1.519c0.168-0.507,0.506-1.183,0.844-1.857c0.337-0.675,0.844-1.181,1.182-2.025
			c0.337-0.675,0.337-1.519,0-2.194c-0.169-0.675-0.506-1.013-0.844-1.351c-0.337-0.337-0.506-0.506-0.506-0.506
			c-0.169-0.169-0.675-0.169-1.013-0.169c-0.337,0.169-0.506,0.506-0.337,0.675l0,0c0,0,0.168,0.169,0.168,0.338
			c0.169,0.169,0.338,0.676,0.338,1.013c0.168,0.507,0,1.014-0.169,1.52c-0.169,0.507-0.675,1.181-1.182,1.856
			c-0.338,0.675-0.844,1.351-0.844,2.194c-0.168,0.844,0,1.52,0.338,2.026C43.94,104.502,44.278,105.008,44.616,105.177z"/>
		<path fill="#F69346" d="M180.333,109.565H141.34c-0.507,0-0.844,0.844-0.338,1.013l3.038,1.688l2.87,4.389
			c0.338,0.506,1.013,0.844,1.688,0.844h24.477c0.675,0,1.182-0.338,1.688-0.844l2.869-4.389l3.038-1.688
			C181.008,110.409,180.84,109.565,180.333,109.565z"/>
		<path fill="#F69346" d="M154.844,105.177c0.338,0.338,0.506,0.507,0.506,0.507c0.169,0.169,0.507,0.337,1.014,0.169
			c0.337-0.169,0.506-0.507,0.337-0.677l0,0c0,0-0.169-0.168-0.337-0.506c-0.17-0.337-0.338-0.675-0.507-1.182
			c-0.169-0.506-0.169-1.013,0-1.519c0.169-0.507,0.507-1.183,0.844-1.857c0.338-0.675,0.845-1.181,1.183-2.025
			c0.337-0.675,0.337-1.519,0-2.194c-0.17-0.675-0.507-1.013-0.845-1.351c-0.338-0.337-0.507-0.506-0.507-0.506
			c-0.168-0.169-0.675-0.169-1.012-0.169c-0.338,0.169-0.507,0.506-0.338,0.675l0,0c0,0,0.168,0.169,0.168,0.338
			c0.169,0.169,0.338,0.676,0.338,1.013c0.169,0.507,0,1.014-0.168,1.52c-0.17,0.507-0.676,1.181-1.183,1.856
			c-0.337,0.675-0.844,1.351-0.844,2.194c-0.169,0.844,0,1.52,0.338,2.026C154.168,104.502,154.676,105.008,154.844,105.177z"/>
		<path fill="#F69346" d="M159.908,105.177c0.337,0.338,0.506,0.507,0.506,0.507c0.168,0.169,0.506,0.337,1.013,0.169
			c0.338-0.169,0.507-0.507,0.338-0.677l0,0c0,0-0.169-0.168-0.338-0.506c-0.169-0.337-0.338-0.675-0.507-1.182
			c-0.168-0.506-0.168-1.013,0-1.519c0.169-0.507,0.507-1.183,0.845-1.857s0.845-1.181,1.181-2.025c0.339-0.675,0.339-1.519,0-2.194
			c-0.168-0.675-0.506-1.013-0.843-1.351c-0.338-0.337-0.507-0.506-0.507-0.506c-0.169-0.169-0.676-0.169-1.013-0.169
			c-0.338,0.169-0.507,0.506-0.338,0.675l0,0c0,0,0.169,0.169,0.169,0.338c0.168,0.169,0.338,0.676,0.338,1.013
			c0.168,0.507,0,1.014-0.169,1.52c-0.169,0.507-0.675,1.181-1.182,1.856c-0.338,0.675-0.845,1.351-0.845,2.194
			c-0.168,0.844,0,1.52,0.338,2.026C159.232,104.502,159.57,105.008,159.908,105.177z"/>
		<path fill="#F69346" d="M164.803,105.177c0.338,0.338,0.507,0.507,0.507,0.507c0.169,0.169,0.507,0.337,1.013,0.169
			c0.338-0.169,0.506-0.507,0.338-0.677l0,0c0,0-0.169-0.168-0.338-0.506c-0.168-0.337-0.338-0.675-0.506-1.182
			c-0.169-0.506-0.169-1.013,0-1.519c0.168-0.507,0.506-1.183,0.844-1.857s0.844-1.181,1.182-2.025c0.338-0.675,0.338-1.519,0-2.194
			c-0.169-0.675-0.507-1.013-0.844-1.351c-0.338-0.337-0.507-0.506-0.507-0.506c-0.169-0.169-0.675-0.169-1.013-0.169
			c-0.338,0.169-0.506,0.506-0.338,0.675l0,0c0,0,0.169,0.169,0.169,0.338c0.169,0.169,0.338,0.676,0.338,1.013
			c0.169,0.507,0,1.014-0.169,1.52c-0.169,0.507-0.676,1.181-1.182,1.856c-0.338,0.675-0.844,1.351-0.844,2.194
			c-0.169,0.844,0,1.52,0.337,2.026C164.127,104.502,164.635,105.008,164.803,105.177z"/>
		<path fill="#F69346" d="M82.934,96.906c-3.039,1.519-5.571,3.713-7.596,6.413c-2.87,3.884-12.491,22.451-12.491,22.451
			s-4.389-2.194-9.284-4.558c-0.507-0.338-1.182-0.506-1.688-0.844H34.825c-0.844,3.039,0.168,6.076,4.22,7.934
			c4.558,2.194,25.49,12.829,27.346,13.335c2.026,0.507,4.389-1.013,5.402-3.039l9.622-18.904l-3.714,39.33
			c-0.169,2.363,1.351,4.389,3.714,4.728c6.245,0.843,12.66,1.35,19.243,1.35c1.856,0,3.883,0,5.74-0.169v-58.574l-19.75-11.141
			C85.297,95.724,84.116,96.23,82.934,96.906z M99.308,120.2c1.183,0,2.026,0.844,2.026,2.025c0,1.183-0.844,2.025-2.026,2.025
			c-1.181,0-2.025-0.843-2.025-2.025C97.282,121.213,98.126,120.2,99.308,120.2z M99.308,129.484c1.183,0,2.026,0.845,2.026,2.026
			c0,1.181-0.844,2.024-2.026,2.024c-1.181,0-2.025-0.844-2.025-2.024C97.282,130.497,98.126,129.484,99.308,129.484z
			 M99.308,138.937c1.183,0,2.026,0.845,2.026,2.026s-0.844,2.025-2.026,2.025c-1.181,0-2.025-0.844-2.025-2.025
			S98.126,138.937,99.308,138.937z M99.308,148.221c1.183,0,2.026,0.845,2.026,2.026s-0.844,2.024-2.026,2.024
			c-1.181,0-2.025-0.843-2.025-2.024S98.126,148.221,99.308,148.221z"/>
		<path fill="#F69346" d="M148.768,120.369c-5.402,2.532-11.142,5.401-11.142,5.401s-2.363-4.558-5.064-9.79
			c-2.7-5.064-5.908-10.804-7.259-12.661c-2.025-2.7-4.727-5.063-7.596-6.413c-1.182-0.676-2.7-1.183-3.883-1.688
			c-3.713,2.701-8.271,4.22-13.334,4.22c-0.338,0-0.676,0-0.845,0l8.946,5.064c0.507,0.168,0.676,0.676,0.676,1.182v59.249
			c3.375-0.169,6.752-0.507,10.127-1.013c2.363-0.338,4.052-2.362,3.715-4.727l-3.883-39.331l9.791,18.906
			c1.012,2.026,3.037,3.714,5.401,3.038c2.363-0.675,21.944-10.634,27.346-13.335c4.727-2.363,5.739-5.233,4.896-7.934h-17.893
			V120.369z"/>
		<path fill="#F69346" d="M82.765,76.312c0,9.622,7.765,17.387,17.387,17.387c9.621,0,17.387-7.765,17.387-17.387
			c0-2.532-0.507-4.727-1.352-6.921H84.116C83.271,71.585,82.765,73.779,82.765,76.312z"/>
		<path fill="#F69346" d="M86.141,51.835L84.791,66.69h30.553l-1.35-14.855c5.4-0.169,9.789-4.727,9.789-10.128
			c0-5.57-4.557-10.128-10.127-10.128c-1.014,0-2.025,0.169-3.039,0.506c-2.363-3.207-6.246-5.232-10.634-5.232
			c-4.389,0-8.103,2.025-10.634,5.232c-1.013-0.337-2.025-0.506-3.039-0.506c-5.57,0-10.128,4.558-10.128,10.128
			C76.351,47.108,80.74,51.666,86.141,51.835z"/>
	</g>
</g>
<circle display="none" fill="none" stroke="#F69346" stroke-miterlimit="10" cx="100.318" cy="100.494" r="98.494"/>
<g display="none">
	<path display="inline" fill="#F69346" d="M153.573,47.068H140.5V36.197H60.136v10.871H47.063v13.485h7.706l14.312,101.97h62.476
		l14.311-101.97h7.707V47.068z M64.814,103.076h13.211l0.412-1.514c2.614-10.046,11.559-16.926,21.88-16.926
		c10.183,0,19.265,6.88,21.88,16.788l0.414,1.514h13.21l-1.239,8.532h-11.971l-0.414,1.514c-2.615,9.908-11.559,16.788-21.88,16.788
		s-19.266-6.88-21.88-16.926l-0.412-1.515h-12.11L64.814,103.076z M127.978,158.534H72.658l-6.055-43.073h8.256
		c3.578,10.87,13.762,18.44,25.458,18.44c11.56,0,21.742-7.433,25.32-18.303h8.258L127.978,158.534z M136.371,98.81h-10.733
		c-3.578-10.871-13.761-18.302-25.32-18.302c-11.696,0-21.88,7.568-25.458,18.44H64.264L58.897,60.83h82.841L136.371,98.81z"/>
	<path display="inline" fill="#F69346" d="M100.317,91.517c-8.669,0-15.688,7.018-15.688,15.688s7.019,15.688,15.688,15.688
		c8.67,0,15.688-7.019,15.688-15.688S108.987,91.517,100.317,91.517z M91.648,113.397c-1.515-3.166-0.275-7.845,3.44-11.422
		c3.44-3.579,7.981-4.955,11.146-3.579c0.276,0.138,0.276,0.413,0,0.552c-2.063,1.101-5.229,3.578-6.88,7.843
		c-1.651,4.129-4.954,6.193-6.605,6.881C92.336,113.946,91.785,113.81,91.648,113.397z M105.548,112.434
		c-3.578,3.578-8.119,4.815-11.285,3.44c-0.274-0.139-0.274-0.413,0-0.551c1.102-0.551,2.477-1.514,3.715-2.752
		c1.239-1.239,2.478-2.89,3.303-4.955c1.652-4.127,4.954-6.191,6.469-7.018c0.413-0.138,0.825,0,1.101,0.413
		C110.5,104.039,109.262,108.855,105.548,112.434z"/>
</g>
<circle display="none" fill="none" stroke="#F69346" stroke-miterlimit="10" cx="101.396" cy="100.993" r="98.493"/>
<g display="none">
	<title>Croissant</title>
	<desc>Created with Sketch.</desc>
	<g display="inline">
		<g>
			<path fill="#F69346" d="M160.311,70.39c-1.638,4.066-8.891,7.578-21.577,10.455c0-0.039-0.005-0.08-0.005-0.117
				c-0.004-0.311-0.015-0.621-0.034-0.932c-0.011-0.188-0.026-0.378-0.042-0.565c-0.024-0.271-0.054-0.542-0.091-0.813
				c-0.036-0.256-0.08-0.509-0.125-0.764c-0.039-0.211-0.071-0.422-0.118-0.631c-0.104-0.477-0.223-0.949-0.365-1.413l-4.9-15.929
				c-0.268-0.871-0.591-1.712-0.939-2.539c-0.092-0.224-0.196-0.439-0.295-0.66c-0.287-0.631-0.599-1.247-0.931-1.85
				c-0.112-0.204-0.218-0.41-0.337-0.609c-0.42-0.714-0.865-1.415-1.355-2.086c12.99-1.754,22.966,2.266,29.657,11.978v0.002
				C160.578,66.422,161.055,68.539,160.311,70.39L160.311,70.39z M126.502,93.424l-3.812,2.191
				c-0.013-0.036-0.032-0.066-0.046-0.103c-0.215-0.574-0.46-1.141-0.734-1.696c-0.06-0.122-0.115-0.245-0.178-0.365
				c-0.316-0.606-0.656-1.202-1.042-1.779l-21.918-34.04c-0.468-0.696-0.964-1.359-1.487-1.994
				c-0.326-0.398-0.677-0.763-1.021-1.136c-0.191-0.204-0.373-0.42-0.569-0.617c-0.471-0.474-0.965-0.912-1.465-1.34
				c-0.078-0.065-0.152-0.137-0.231-0.201c-0.566-0.471-1.153-0.904-1.756-1.311c-0.015-0.009-0.025-0.02-0.037-0.028l3.262-1.873
				c6.364-3.656,13.758-4.279,20.286-1.705c2.774,1.093,5.217,2.741,7.265,4.783c0.483,0.48,0.933,0.981,1.362,1.499
				c0.146,0.177,0.299,0.351,0.439,0.532c0.361,0.464,0.689,0.951,1.011,1.44c0.161,0.247,0.329,0.483,0.48,0.738
				c0.288,0.483,0.54,0.989,0.789,1.497c0.129,0.263,0.274,0.515,0.395,0.783c0.344,0.779,0.652,1.584,0.907,2.412l4.9,15.93
				l0.005,0.018c0.141,0.467,0.253,0.944,0.341,1.429c0.016,0.087,0.027,0.174,0.042,0.26c0.077,0.474,0.135,0.952,0.16,1.438v0.018
				c0.054,1.08-0.021,2.177-0.228,3.264c-0.001,0.009,0,0.019-0.001,0.029C132.85,87.521,130.319,91.232,126.502,93.424
				L126.502,93.424z M114.273,113.59c-3.818,3.82-9.096,5.386-13.955,4.481c-0.405-0.076-0.805-0.17-1.197-0.275
				c-0.09-0.025-0.182-0.05-0.272-0.074c-0.334-0.101-0.66-0.216-0.983-0.336c-0.135-0.052-0.269-0.098-0.402-0.152
				c-0.273-0.112-0.54-0.242-0.805-0.371c-0.156-0.075-0.317-0.145-0.47-0.228c-0.363-0.193-0.716-0.405-1.062-0.633
				c-0.044-0.029-0.09-0.054-0.137-0.085L61.027,94.05c-0.024-0.017-0.046-0.034-0.069-0.049c-0.484-0.327-0.941-0.676-1.386-1.033
				c-0.167-0.135-0.332-0.274-0.493-0.414c-0.292-0.248-0.569-0.508-0.842-0.771c-0.343-0.329-0.669-0.67-0.979-1.021
				c-0.158-0.177-0.32-0.351-0.469-0.532c-0.252-0.303-0.485-0.613-0.714-0.931c-0.063-0.086-0.123-0.173-0.184-0.26
				c-0.751-1.082-1.379-2.233-1.86-3.444c-0.002-0.003-0.004-0.006-0.004-0.009c-0.575-1.444-0.973-2.956-1.127-4.531
				c-0.552-5.661,1.696-11.329,6.329-15.963l6.548-6.545c4.172-4.173,9.186-6.411,14.274-6.411c0.561,0,1.124,0.027,1.687,0.083
				c1.573,0.153,3.086,0.55,4.529,1.122c0.001,0.002,0.005,0.005,0.01,0.007c1.225,0.488,2.388,1.122,3.481,1.882
				c0.062,0.044,0.123,0.086,0.183,0.13c0.336,0.239,0.665,0.487,0.984,0.752c0.098,0.081,0.191,0.171,0.289,0.253
				c0.437,0.375,0.856,0.774,1.262,1.194c0.252,0.263,0.503,0.528,0.745,0.811c0.138,0.159,0.275,0.323,0.408,0.488
				c0.374,0.464,0.738,0.939,1.079,1.446l21.915,34.043c0.263,0.391,0.504,0.797,0.725,1.212c0.026,0.052,0.049,0.104,0.075,0.154
				c0.194,0.378,0.374,0.762,0.535,1.158c0.012,0.03,0.021,0.06,0.032,0.091c0.347,0.879,0.61,1.8,0.783,2.762
				c0.002,0.009,0.005,0.017,0.007,0.024C119.637,104.564,118.067,109.796,114.273,113.59L114.273,113.59z M94.107,125.819
				c-2.197,3.823-5.923,6.357-9.957,7.123h-0.001c-1.067,0.202-2.124,0.273-3.162,0.231c-0.108-0.005-0.216-0.017-0.324-0.024
				c-0.375-0.024-0.75-0.068-1.119-0.127c-0.142-0.021-0.282-0.04-0.424-0.067c-0.47-0.088-0.936-0.195-1.396-0.338l-15.926-4.898
				c-0.034-0.01-0.063-0.026-0.096-0.036c-0.794-0.248-1.563-0.538-2.31-0.867c-0.286-0.127-0.554-0.281-0.833-0.419
				c-0.489-0.241-0.982-0.485-1.452-0.766c-0.257-0.152-0.499-0.326-0.749-0.488c-0.488-0.319-0.973-0.647-1.435-1.006
				c-0.181-0.141-0.353-0.292-0.529-0.437c-0.516-0.431-1.021-0.884-1.506-1.369c-2.039-2.043-3.687-4.486-4.78-7.259
				c-2.572-6.528-1.951-13.921,1.705-20.286l1.875-3.264c0.027,0.042,0.06,0.078,0.09,0.12c0.386,0.563,0.789,1.114,1.232,1.648
				c0.101,0.123,0.212,0.241,0.317,0.363c0.398,0.46,0.799,0.914,1.236,1.35c0.237,0.236,0.498,0.457,0.748,0.688
				c0.338,0.31,0.665,0.626,1.025,0.922c0.641,0.526,1.311,1.031,2.016,1.503l33.963,21.868c0.572,0.385,1.163,0.721,1.763,1.033
				c0.109,0.057,0.22,0.113,0.328,0.169c0.62,0.308,1.247,0.587,1.89,0.822L94.107,125.819z M71.073,159.627
				c-1.854,0.745-3.97,0.27-6.478-1.458c-9.708-6.689-13.728-16.652-11.978-29.657c0.673,0.49,1.374,0.937,2.089,1.358
				c0.199,0.115,0.402,0.222,0.605,0.332c0.605,0.336,1.223,0.646,1.857,0.935c0.218,0.101,0.433,0.199,0.652,0.293
				c0.828,0.35,1.67,0.672,2.543,0.939l15.926,4.899c0.421,0.131,0.848,0.242,1.275,0.338c1.311,0.301,2.636,0.448,3.96,0.452
				C78.648,150.736,75.137,157.989,71.073,159.627L71.073,159.627z M162.859,61.154c-8.271-12.007-21.243-16.638-37.544-13.487
				c-2.267-1.999-4.88-3.626-7.776-4.768c-7.908-3.116-16.838-2.387-24.494,2.012l-6.063,3.48c-1.532-0.513-3.127-0.857-4.771-1.017
				c-7.035-0.687-14.278,2.133-19.875,7.73l-6.549,6.546c-5.598,5.598-8.415,12.842-7.729,19.876
				c0.159,1.645,0.504,3.239,1.02,4.772l-3.485,6.063c-4.397,7.655-5.131,16.584-2.012,24.494c1.142,2.897,2.769,5.511,4.77,7.773
				c-3.152,16.306,1.48,29.276,13.486,37.548c2.577,1.776,5.077,2.666,7.466,2.666c1.227,0,2.426-0.233,3.589-0.702
				c7.673-3.092,11.409-15.663,13.774-26.804c4.762-1.345,9.039-4.53,11.662-9.096l2.943-5.127c0.578,0.05,1.155,0.086,1.736,0.086
				c5.296,0,10.645-2.109,14.706-6.171c4.51-4.508,6.594-10.599,6.081-16.438l5.131-2.947c4.566-2.623,7.744-6.899,9.089-11.66
				c11.143-2.365,23.719-6.101,26.81-13.776C166.209,68.772,165.547,65.055,162.859,61.154L162.859,61.154z"/>
		</g>
	</g>
</g>
<circle fill="none" stroke="#F69346" stroke-miterlimit="10" cx="100.992" cy="100.993" r="98.494"/>
<g>
	<path fill="#F69346" d="M144.324,101.529L144.324,101.529c0,0.172,0,0.172,0,0.172v0.172c0,0,0,0.172,0.172,0.172c0,0,0,0,0,0.172
		c0,0,0.172,0,0.172,0.172c0,0,0,0,0.172,0s0.172,0,0.344,0l0,0l0,0l0,0l0,0c1.377-0.172,2.753-0.344,4.129-0.344
		c1.548-0.172,3.097-0.344,4.473-0.516h0.172h0.172c0,0,0.172,0,0.172-0.173c0,0,0.172,0,0.172-0.172c0,0,0-0.172,0.173-0.172
		v-0.172v-0.173v-0.172c0-2.063,0.172-20.642,0.344-20.814c0-0.344-0.172-0.516-0.344-0.688c-0.173-0.173-0.517-0.173-0.86-0.173
		l-9.117,3.097c-0.344,0.172-0.688,0.517-0.688,0.86S144.152,100.324,144.324,101.529
		C144.152,101.529,144.324,101.529,144.324,101.529z M153.097,81.059c0,3.784-0.172,15.31-0.172,18.75
		c-1.204,0.172-2.408,0.172-3.612,0.344c-1.032,0.172-2.064,0.172-3.097,0.344c0-3.44-0.172-14.105-0.172-17.029L153.097,81.059z"/>
	<path fill="#F69346" d="M123.681,103.421C123.681,103.421,123.681,103.593,123.681,103.421c0.173,0.172,0.345,0.172,0.517,0.172
		l0,0l0,0l0,0c5.505,0,11.01-0.517,16.687-0.86c0.172,0,0.516-0.172,0.688-0.344c0.344-0.172,0.517-0.516,0.344-0.859
		c-0.172-1.205,0-13.074,0-17.375c0-0.344-0.172-0.516-0.344-0.688s-0.516-0.172-0.859-0.172c0,0-6.193,1.548-9.461,2.064
		c-0.517,0-0.861,0.516-0.861,0.859v6.537c0,0.172,0,1.376-1.375,1.376c-0.517,0-0.688-0.173-0.688-0.173
		c-0.345-0.343-0.345-0.859-0.345-1.203c0,0,0,0,0-0.172v-6.021c0-0.172-0.172-0.516-0.344-0.688s-0.344-0.345-0.688-0.172
		l-3.27,0.172c-0.516,0-0.859,0.344-0.859,0.859c0,0.517-0.172,14.278,0,16.342v0.173v0.172c0,0,0,0.172,0.172,0.172
		c0,0,0,0,0,0.172C123.51,103.421,123.51,103.421,123.681,103.421z M129.187,95.68c2.236-0.172,3.096-2.063,3.096-3.268v-5.678
		c2.581-0.344,6.021-1.204,7.741-1.72c0,3.44-0.172,12.729,0,15.653c-5.16,0.345-10.149,0.688-15.138,0.861
		c0-2.065,0-6.709,0-10.838l1.548-0.86v2.408c0,0.345-0.172,1.549,0.688,2.581C127.466,95.336,128.154,95.852,129.187,95.68z
		 M126.434,87.423v0.688l-1.376,0.859c0-0.516,0-1.032,0-1.548H126.434z"/>
	<path fill="#F69346" d="M177.523,60.76c-0.172-0.172-0.516-0.344-0.688-0.344c-5.505-3.44-36.124-13.418-37.845-13.074
		c-1.72,0.345-2.924,1.032-3.956,2.236c-1.721,2.236-1.549,5.161,0.344,6.537c-1.204,1.72-4.816,5.849-11.525,11.525
		c-8.945-2.236-18.578-3.44-28.384-3.44c-40.081,0-72.42,18.234-72.42,40.597s32.339,40.597,72.42,40.597
		s72.421-18.234,72.421-40.597c0-1.721-0.172-3.44-0.516-5.16c-0.173-0.344-0.517-0.688-0.86-0.688l-6.193,0.345l0,0
		c-0.516,0-0.859,0-1.375,0.171c-0.173,0-0.173,0-0.345,0c0-3.439,0-14.793,0.172-21.502c1.721-1.204,8.773-5.677,11.01-7.397
		c0.172-0.172,0.172-0.172,0.344-0.344c0.517,0.344,1.376,0.517,2.236,0.517c0.517,0,1.032,0,1.721-0.173
		c1.548-0.344,2.924-1.204,3.612-2.235c0.859-1.033,1.204-2.408,1.204-3.957C179.072,62.824,178.556,61.447,177.523,60.76z
		 M165.654,100.668c0.172,1.377,0.344,2.753,0.344,4.129c0,21.331-31.651,38.705-70.528,38.705s-70.528-17.374-70.528-38.705
		c0-21.33,31.651-38.704,70.528-38.704c9.289,0,18.234,1.032,26.836,2.925c-0.688,0.516-1.377,1.031-2.064,1.72
		c-7.913-1.72-16.17-2.581-24.771-2.581C58.829,67.984,29.07,83.982,29.07,103.593s29.759,35.608,66.399,35.608
		s66.229-15.998,66.229-35.608c0-0.86,0-1.72-0.172-2.58L165.654,100.668z M157.397,76.758c-0.172,0.172-0.344,0.516-0.344,0.688
		c0,0.859-0.173,21.674-0.173,23.05l0,0l0,0c0,0.172,0,0.172,0.173,0.345l0,0c0,0.172,0.172,0.172,0.172,0.172l0,0l0.172,0.172
		c0,0,0,0,0.172,0h0.172l0,0l0,0l0,0l0,0c0.517,0,0.86,0,1.377-0.172c0.172,0,0.344,0,0.516,0c0.172,0.86,0.172,1.72,0.172,2.408
		c0,18.578-28.899,33.716-64.508,33.716S30.79,121.999,30.79,103.421s28.899-33.716,64.508-33.716
		c7.913,0,15.654,0.688,22.879,2.236c-1.204,0.859-2.408,1.893-3.784,2.924c-0.688-1.376-2.925-2.408-5.505-2.408
		c-3.269,0-5.677,1.548-5.677,3.44c0,1.72,1.893,3.097,4.645,3.44c-1.721,1.205-3.44,2.236-5.332,3.44
		c-0.345,0.173-0.517,0.517-0.345,0.86c0,0.344,0.345,0.688,0.516,0.688c0,0,1.893,0.688,4.989,1.377c0,0.344,0,0.86,0,1.376
		c-1.204-0.688-2.752-0.86-4.473-0.86c-3.784,0-6.881,1.72-6.881,4.128c0,2.409,3.097,4.13,6.881,4.13
		c1.721,0,3.269-0.345,4.473-0.86c0.517,1.72,1.892,2.063,2.408,2.063c0.688,0,1.376-0.172,1.892-0.688
		c0.688-0.688,1.033-1.721,1.033-2.58l0.516-5.678h0.172c1.548,0.173,3.269,0.517,5.16,0.517c0,1.032,0,2.753,0,4.816
		l-19.609,11.182c-0.345,0.172-0.517,0.688-0.345,1.032c0.173,0.344,0.517,0.688,0.86,0.688l0,0l20.127-1.376l0,0l0,0h0.172h0.172
		c0,0,0.172,0,0.172-0.172c0,0,0.172,0,0.172-0.172v-0.173v-0.171v-0.173v-0.172l0,0l0,0c-0.172-1.548,0-11.181,0-16.17
		c0-0.516-0.344-0.86-0.859-0.86c-2.408,0-4.129-0.344-5.85-0.688c-0.344,0-0.688-0.172-1.204-0.172c-0.172,0-0.516,0-0.688,0.172
		c-0.172,0.172-0.344,0.344-0.344,0.688l-0.516,6.709c0,0.517-0.172,1.032-0.516,1.377c-0.173,0.172-0.345,0.172-0.517,0.172
		s-0.86,0-0.86-1.549c0-0.859,0-1.892,0-2.924c0.172-4.301,0.172-4.816-0.688-5.161c-1.549-0.344-2.753-0.688-3.613-0.859
		c21.159-13.418,29.933-24.083,31.824-26.664l30.62,13.074C164.278,72.457,157.569,76.758,157.397,76.758z M119.037,102.045
		l-15.311,1.031l15.311-8.772C119.037,97.229,119.037,100.324,119.037,102.045z M168.923,66.437c-0.172,0.859,0,1.72,0.172,2.408
		l-2.236-1.032l-0.172-3.612c0-0.516-0.516-0.86-0.86-0.86c-0.516,0-0.859,0.517-0.859,0.86l0.172,2.752l-1.376-0.516l-0.173-4.128
		c0-0.517-0.516-0.861-0.86-0.861c-0.516,0-0.859,0.517-0.859,0.861l0.172,3.268l-1.376-0.516l0,0l-0.345-5.16
		c0-0.517-0.516-0.861-1.031-0.861c-0.517,0-0.86,0.517-0.86,1.032l0.344,4.301l-1.376-0.688l-0.517-6.021
		c0-0.516-0.516-0.859-1.031-0.859c-0.517,0-0.86,0.516-0.86,1.031l0.344,5.161l-1.548-0.688l0,0l-0.172-3.785
		c0-0.516-0.517-0.86-1.032-0.86c-0.517,0-0.86,0.517-0.86,1.032l0.172,2.925l-1.548-0.688l-0.172-3.612
		c0-0.516-0.517-0.86-0.86-0.86c-0.517,0-0.86,0.517-0.86,0.86l0.172,2.752l-1.204-0.516v-0.172l-0.344-4.301
		c0-0.516-0.516-0.86-1.032-0.86c-0.516,0-0.86,0.517-0.86,1.032l0.345,3.269l-1.549-0.688l-0.344-3.612
		c0-0.516-0.516-0.859-1.032-0.859c-0.516,0-0.86,0.516-0.86,1.032l0.345,2.58l-1.204-0.517l-0.517-4.129
		c0-0.516-0.516-0.859-1.032-0.859c-0.516,0-0.859,0.517-0.859,1.032l0.344,3.097l-2.236-0.86c-0.172,0-0.172,0-0.344,0
		l-0.172-0.172c-1.204-0.86-1.204-2.753-0.173-4.129c0.517-0.86,1.549-1.376,2.753-1.548c1.032,0,9.289,2.58,18.578,5.677
		c7.396,2.58,12.558,4.472,15.481,5.849c-1.204,0.516-2.063,1.204-2.752,2.063C169.61,63.685,169.095,65.061,168.923,66.437z
		 M176.319,67.125c-0.516,0.688-1.548,1.376-2.752,1.548c-1.032,0.345-2.064,0.172-2.58-0.172c-0.344-0.345-0.516-1.032-0.516-2.064
		c0.172-1.032,0.688-2.236,1.203-2.924c0.517-0.688,1.377-1.377,2.409-1.549c0.343-0.172,0.688-0.172,1.031-0.172
		c0.345,0,0.517,0,0.688,0.172l0,0c0.172,0.172,0.344,0.172,0.516,0.345c0.345,0.344,0.688,1.204,0.688,2.063
		C177.18,65.404,176.836,66.437,176.319,67.125z"/>
	<path fill="#F69346" d="M134.175,81.402c0.86,0,1.893-0.172,2.924-0.516c3.441-1.032,5.677-3.44,4.989-5.678
		c-0.688-2.063-3.784-2.924-7.397-1.892c-3.439,1.032-5.676,3.44-4.988,5.677C130.218,80.542,131.938,81.402,134.175,81.402z"/>
	<path fill="#F69346" d="M136.239,69.877c0.859,0,1.548-0.172,2.58-0.344c1.376-0.345,2.408-1.032,3.269-1.893
		s1.204-2.064,1.032-2.924c-0.517-1.893-3.269-2.581-6.193-1.549c-2.924,0.86-4.816,2.925-4.301,4.816
		C132.971,69.188,134.519,69.877,136.239,69.877z"/>
	<path fill="#F69346" d="M125.746,78.478c-0.517-1.892-3.269-2.58-6.193-1.548c-2.924,0.86-4.816,2.925-4.301,4.816
		c0.345,1.376,1.893,2.064,3.785,2.064c0.86,0,1.72-0.172,2.58-0.344C124.369,82.435,126.262,80.37,125.746,78.478z"/>
	<path fill="#F69346" d="M157.226,70.049c-0.345-1.031-1.376-1.893-2.752-2.236c-1.377-0.344-2.925-0.172-4.473,0.344
		c-3.44,1.032-5.677,3.44-4.989,5.505c0.345,1.032,1.377,1.893,2.753,2.236c0.516,0.172,1.031,0.172,1.376,0.172
		c0.86,0,1.892-0.172,2.924-0.516C155.678,74.521,157.913,72.113,157.226,70.049z"/>
	<path fill="#F69346" d="M83.429,81.23c3.612,0,6.192-1.549,6.192-3.784c0-2.237-2.752-3.785-6.192-3.785s-6.193,1.548-6.193,3.785
		C77.235,79.682,79.816,81.23,83.429,81.23z"/>
	<path fill="#F69346" d="M62.614,89.831c0-2.236-2.752-3.784-6.193-3.784c-3.44,0-6.192,1.548-6.192,3.784s2.752,3.785,6.192,3.785
		C59.862,93.616,62.614,92.067,62.614,89.831z"/>
	<path fill="#F69346" d="M77.408,94.82c3.612,0,6.192-1.549,6.192-3.785s-2.752-3.784-6.192-3.784s-6.193,1.548-6.193,3.784
		S73.968,94.82,77.408,94.82z"/>
	<path fill="#F69346" d="M81.536,101.185c0,2.236,2.753,3.784,6.193,3.784c3.439,0,6.192-1.548,6.192-3.784S91.169,97.4,87.729,97.4
		C84.289,97.4,81.536,98.948,81.536,101.185z"/>
	<path fill="#F69346" d="M110.264,111.334c-3.612,0-6.192,1.548-6.192,3.784s2.752,3.784,6.192,3.784s6.192-1.548,6.192-3.784
		S113.876,111.334,110.264,111.334z"/>
	<path fill="#F69346" d="M145.184,107.722c-3.612,0-6.192,1.548-6.192,3.784s2.752,3.784,6.192,3.784s6.193-1.548,6.193-3.784
		C151.549,109.441,148.797,107.722,145.184,107.722z"/>
	<path fill="#F69346" d="M45.584,101.873c-3.784,0-6.881,1.72-6.881,4.128c0,2.236,3.097,4.129,6.881,4.129s6.881-1.721,6.881-4.129
		C52.465,103.765,49.368,101.873,45.584,101.873z"/>
	<path fill="#F69346" d="M86.869,112.021c-3.784,0-6.881,1.721-6.881,4.129c0,2.236,3.097,4.129,6.881,4.129
		s6.881-1.721,6.881-4.129C93.75,113.914,90.653,112.021,86.869,112.021z"/>
	<path fill="#F69346" d="M70.871,120.967c-4.128,0-7.396,1.893-7.396,4.301s3.269,4.3,7.396,4.3c4.129,0,7.397-1.892,7.397-4.3
		S75,120.967,70.871,120.967z"/>
	<path fill="#F69346" d="M74.312,106.689c0-2.408-3.269-4.301-7.397-4.301c-4.128,0-7.396,1.893-7.396,4.301s3.269,4.3,7.396,4.3
		C71.043,111.162,74.312,109.098,74.312,106.689z"/>
	<path fill="#F69346" d="M100.458,126.3c-3.784,0-6.88,1.72-6.88,4.128c0,2.236,3.096,4.129,6.88,4.129
		c3.785,0,6.882-1.721,6.882-4.129S104.243,126.3,100.458,126.3z"/>
	<path fill="#F69346" d="M130.39,117.183c-3.784,0-6.88,1.72-6.88,4.128c0,2.236,3.096,4.129,6.88,4.129
		c3.785,0,6.882-1.721,6.882-4.129C137.271,119.075,134.175,117.183,130.39,117.183z"/>
</g>
</svg>
