<?xml version="1.0" encoding="utf-8"?>
<!-- Generator: Adobe Illustrator 16.0.0, SVG Export Plug-In . SVG Version: 6.00 Build 0)  -->
<svg version="1.2" baseProfile="tiny" id="Layer_1" xmlns="http://www.w3.org/2000/svg" xmlns:xlink="http://www.w3.org/1999/xlink"
	 x="0px" y="0px" width="200px" height="200px" viewBox="0 0 200 200" xml:space="preserve">
<g display="none">
	<circle display="inline" fill="none" stroke="#F69346" stroke-miterlimit="10" cx="100.493" cy="99.494" r="98.493"/>
	<g display="inline">
		<path fill="#F69346" d="M120.756,91.18V77.494c0-4.227,3.422-7.648,7.648-7.648h16.301c2.818,0,5.436,1.609,6.844,4.228
			l7.045,13.685c1.408,2.416,1.207,5.233-0.203,7.446c-1.408,2.215-4.023,3.624-6.641,3.624h-23.146
			C124.178,98.828,120.756,95.406,120.756,91.18z M144.705,74.073h-16.102c-2.01,0-3.621,1.609-3.621,3.622V91.38
			c0,2.014,1.611,3.622,3.621,3.622h23.146c1.408,0,2.617-0.604,3.221-1.809c0.604-1.209,0.604-2.417,0-3.624l-7.045-13.686
			c-0.604-1.209-1.811-2.013-3.221-2.013V74.073z"/>
		<path fill="#F69346" d="M120.555,137.872c0-9.057,7.246-16.302,16.303-16.302s16.301,7.245,16.301,16.302
			s-7.244,16.303-16.301,16.303C128.002,154.175,120.555,146.728,120.555,137.872z M124.58,137.872
			c0,6.843,5.434,12.277,12.277,12.277c6.842,0,12.277-5.435,12.277-12.277s-5.436-12.276-12.277-12.276
			C130.215,125.596,124.58,131.029,124.58,137.872z"/>
		<path fill="#F69346" d="M40.854,137.872c0-9.057,7.247-16.302,16.302-16.302c9.057,0,16.303,7.245,16.303,16.302
			s-7.247,16.303-16.303,16.303C48.101,154.175,40.854,146.728,40.854,137.872z M44.88,137.872c0,6.843,5.434,12.277,12.277,12.277
			c6.844,0,12.277-5.435,12.277-12.277S64,125.596,57.157,125.596C50.314,125.596,44.88,131.029,44.88,137.872z"/>
		<circle fill="#F69346" cx="136.857" cy="137.873" r="4.025"/>
		<circle fill="#F69346" cx="57.157" cy="137.873" r="4.025"/>
		<path fill="#F69346" d="M23.345,132.035V65.62c0-4.228,3.421-7.648,7.648-7.648H151.75c2.617,0,5.232,1.609,6.641,4.024
			l19.523,34.618c0.604,1.208,1.006,2.414,1.006,3.823v31.8c0,4.227-3.42,7.647-7.646,7.647h-22.139v-2.013
			c0-6.843-5.436-12.276-12.277-12.276c-6.844,0-12.277,5.434-12.277,12.276v2.013H69.434v-2.013
			c0-6.843-5.434-12.276-12.277-12.276c-6.843,0-12.277,5.434-12.277,12.276v2.013H31.194
			C26.968,139.885,23.345,136.464,23.345,132.035z M57.358,121.57c8.252,0,15.095,6.239,16.101,14.289h47.498
			c1.006-8.05,7.85-14.289,16.102-14.289s15.094,6.239,16.1,14.289h18.316c2.012,0,3.623-1.609,3.623-3.622v-31.8
			c0-0.604,0-1.209-0.404-1.812l-19.521-34.617c-0.604-1.005-1.811-1.811-3.221-1.811H31.194c-2.012,0-3.623,1.61-3.623,3.622
			v66.417c0,2.013,1.61,3.622,3.623,3.622h9.862C42.063,127.81,49.106,121.57,57.358,121.57z"/>
		<path fill="#F69346" d="M59.774,52.135c1.408-2.414,4.025-3.824,6.641-3.824h17.51c2.616,0,5.232,1.41,6.642,3.824l5.836,9.861
			H53.937L59.774,52.135z M87.145,54.148c-0.805-1.208-2.013-1.813-3.22-1.813h-17.51c-1.408,0-2.616,0.604-3.22,1.813l-2.214,3.823
			h28.378L87.145,54.148z"/>
		<path fill="#F69346" d="M52.125,106.475l0.201,3.625c0.201,2.012,2.012,3.622,4.025,3.622h37.637c2.012,0,3.823-1.61,4.024-3.622
			l0.201-3.625c0-1.408-0.805-2.213-2.013-2.213H54.138C52.931,104.262,52.125,105.066,52.125,106.475z"/>
		<path fill="#F69346" d="M53.131,90.776c0.605,0.806,1.41,1.208,2.416,1.208h39.044c1.007,0,2.013-0.402,2.617-1.208
			c0.604-0.805,0.805-1.811,0.604-2.816C96.001,78.902,86.34,72.462,75.07,72.462c-11.069,0-20.731,6.44-22.743,15.498
			C52.125,89.168,52.327,90.174,53.131,90.776z M92.982,88.16c0-0.402,0.403-0.805,0.805-0.805c0.402,0,0.805,0.402,0.805,0.805
			c0,0.403-0.403,0.806-0.805,0.806C93.385,88.966,92.982,88.563,92.982,88.16z M87.347,85.946c0-0.401,0.402-0.804,0.804-0.804
			c0.403,0,0.806,0.402,0.806,0.804c0,0.402-0.402,0.805-0.806,0.805C87.749,86.751,87.347,86.349,87.347,85.946z M85.736,79.908
			c0-0.402,0.402-0.805,0.805-0.805c0.402,0,0.805,0.402,0.805,0.805s-0.403,0.806-0.805,0.806
			C85.938,80.714,85.736,80.311,85.736,79.908z M81.913,89.168c0-0.403,0.402-0.807,0.805-0.807c0.403,0,0.806,0.403,0.806,0.807
			c0,0.401-0.402,0.804-0.806,0.804C82.315,89.972,81.913,89.569,81.913,89.168z M81.107,83.33c0-0.403,0.403-0.805,0.806-0.805
			s0.805,0.401,0.805,0.805c0,0.402-0.402,0.805-0.805,0.805S81.107,83.732,81.107,83.33z M78.491,77.292
			c0-0.402,0.402-0.805,0.806-0.805c0.402,0,0.805,0.402,0.805,0.805c0,0.403-0.403,0.804-0.805,0.804
			C78.893,78.096,78.692,77.695,78.491,77.292z M74.466,86.551c0-0.402,0.402-0.805,0.805-0.805c0.402,0,0.805,0.402,0.805,0.805
			c0,0.401-0.403,0.805-0.805,0.805C74.868,87.355,74.466,87.154,74.466,86.551z M73.661,80.514c0-0.404,0.403-0.806,0.805-0.806
			c0.402,0,0.805,0.401,0.805,0.806c0,0.402-0.403,0.805-0.805,0.805C74.064,81.318,73.862,81.116,73.661,80.514z M68.025,83.732
			c0-0.402,0.402-0.806,0.805-0.806c0.402,0,0.805,0.403,0.805,0.806s-0.402,0.806-0.805,0.806
			C68.428,84.538,68.025,84.135,68.025,83.732z M65.007,88.765c0-0.403,0.402-0.805,0.805-0.805c0.402,0,0.804,0.401,0.804,0.805
			s-0.402,0.805-0.804,0.805C65.409,89.569,65.007,89.369,65.007,88.765z M64.202,78.299c0-0.401,0.402-0.805,0.805-0.805
			c0.402,0,0.805,0.403,0.805,0.805c0,0.402-0.403,0.805-0.805,0.805C64.604,79.104,64.402,78.902,64.202,78.299z M59.371,83.33
			c0-0.403,0.403-0.805,0.805-0.805s0.805,0.401,0.805,0.805c0,0.402-0.402,0.805-0.805,0.805S59.371,83.732,59.371,83.33z
			 M55.95,88.361c0-0.401,0.402-0.806,0.804-0.806s0.806,0.404,0.806,0.806c0,0.403-0.403,0.807-0.806,0.807
			C56.352,89.168,56.151,88.966,55.95,88.361z"/>
		<path fill="#F69346" d="M52.327,100.64c0,1.207,1.007,2.212,2.214,2.212H95.8c1.208,0,2.213-1.005,2.213-2.212
			c0-1.208-1.006-2.216-2.213-2.216H54.339C53.333,98.424,52.327,99.432,52.327,100.64z"/>
		<path fill="#F69346" d="M51.522,97.419c-0.403-0.201-0.604-0.805-0.403-1.209c0.806-1.608,2.818-2.213,3.02-2.213
			c2.415-0.604,5.233,1.207,5.837,1.609c1.408,0.604,3.42-0.402,4.226-1.005c3.421-2.215,7.044,0,7.245,0
			c3.421,2.013,6.441,0.2,6.642,0.2c4.83-2.615,9.056,0,9.66,0.402c2.214,1.006,3.019,0.202,4.427-0.603
			c1.611-1.007,3.624-2.215,7.044,0c0.403,0.2,0.403,0.805,0.202,1.207c-0.202,0.401-0.806,0.401-1.208,0.201
			c-2.415-1.611-3.623-0.806-5.232,0c-1.408,1.006-3.623,2.214-6.038,0.604c0,0-4.025-2.617-8.051-0.404
			c-0.201,0-4.227,2.214-8.453-0.2c-0.202-0.201-3.019-1.812-5.434-0.201c-0.202,0-3.421,2.213-6.038,1.007
			c-0.202,0-3.019-1.813-4.428-1.409c-0.403,0.2-1.61,0.604-2.013,1.409C52.327,97.016,51.925,97.419,51.522,97.419z"/>
	</g>
</g>
<circle display="none" fill="none" stroke="#F69346" stroke-miterlimit="10" cx="100.621" cy="99.494" r="98.494"/>
<g display="none">
	<g display="inline">
		<path fill="#F69346" d="M54.406,116.824l2.87-4.389l3.039-1.688c0.506-0.337,0.337-1.013-0.338-1.013H20.983
			c-0.506,0-0.844,0.844-0.337,1.013l3.038,1.688l2.87,4.389c0.337,0.506,1.013,0.844,1.688,0.844h24.477
			C53.394,117.668,54.068,117.33,54.406,116.824z"/>
		<path fill="#F69346" d="M34.656,105.177c0.338,0.338,0.506,0.507,0.506,0.507c0.169,0.169,0.506,0.337,1.013,0.169
			c0.338-0.169,0.507-0.507,0.338-0.677l0,0c0,0-0.168-0.168-0.338-0.506c-0.168-0.337-0.337-0.675-0.506-1.182
			c-0.168-0.506-0.168-1.013,0-1.519c0.169-0.507,0.506-1.183,0.844-1.857s0.844-1.181,1.182-2.025c0.338-0.675,0.338-1.519,0-2.194
			c-0.169-0.675-0.506-1.013-0.844-1.351c-0.338-0.337-0.506-0.506-0.506-0.506c-0.169-0.169-0.676-0.169-1.013-0.169
			c-0.338,0.169-0.507,0.506-0.338,0.675l0,0c0,0,0.168,0.169,0.168,0.338c0.169,0.169,0.338,0.676,0.338,1.013
			c0.168,0.507,0,1.014-0.168,1.52c-0.169,0.507-0.676,1.181-1.182,1.856c-0.337,0.675-0.844,1.351-0.844,2.194
			c-0.169,0.844,0,1.52,0.337,2.026C33.981,104.502,34.319,105.008,34.656,105.177z"/>
		<path fill="#F69346" d="M39.551,105.177c0.338,0.338,0.507,0.507,0.507,0.507c0.168,0.169,0.506,0.337,1.013,0.169
			c0.337-0.169,0.506-0.507,0.337-0.677l0,0c0,0-0.168-0.168-0.337-0.506c-0.169-0.337-0.337-0.675-0.506-1.182
			c-0.169-0.506-0.169-1.013,0-1.519c0.169-0.507,0.506-1.183,0.844-1.857c0.338-0.675,0.844-1.181,1.182-2.025
			c0.338-0.675,0.338-1.519,0-2.194c-0.168-0.675-0.506-1.013-0.844-1.351c-0.338-0.337-0.506-0.506-0.506-0.506
			c-0.169-0.169-0.675-0.169-1.013-0.169c-0.338,0.169-0.506,0.506-0.338,0.675l0,0c0,0,0.169,0.169,0.169,0.338
			c0.168,0.169,0.337,0.676,0.337,1.013c0.169,0.507,0,1.014-0.168,1.52c-0.169,0.507-0.676,1.181-1.182,1.856
			c-0.337,0.675-0.844,1.351-0.844,2.194c-0.168,0.844,0,1.52,0.338,2.026C38.876,104.502,39.383,105.008,39.551,105.177z"/>
		<path fill="#F69346" d="M44.616,105.177c0.338,0.338,0.506,0.507,0.506,0.507c0.169,0.169,0.506,0.337,1.013,0.169
			c0.338-0.169,0.506-0.507,0.338-0.677l0,0c0,0-0.169-0.168-0.338-0.506c-0.169-0.337-0.338-0.675-0.506-1.182
			c-0.168-0.506-0.168-1.013,0-1.519c0.168-0.507,0.506-1.183,0.844-1.857c0.337-0.675,0.844-1.181,1.182-2.025
			c0.337-0.675,0.337-1.519,0-2.194c-0.169-0.675-0.506-1.013-0.844-1.351c-0.337-0.337-0.506-0.506-0.506-0.506
			c-0.169-0.169-0.675-0.169-1.013-0.169c-0.337,0.169-0.506,0.506-0.337,0.675l0,0c0,0,0.168,0.169,0.168,0.338
			c0.169,0.169,0.338,0.676,0.338,1.013c0.168,0.507,0,1.014-0.169,1.52c-0.169,0.507-0.675,1.181-1.182,1.856
			c-0.338,0.675-0.844,1.351-0.844,2.194c-0.168,0.844,0,1.52,0.338,2.026C43.94,104.502,44.278,105.008,44.616,105.177z"/>
		<path fill="#F69346" d="M180.333,109.565H141.34c-0.507,0-0.844,0.844-0.338,1.013l3.038,1.688l2.87,4.389
			c0.338,0.506,1.013,0.844,1.688,0.844h24.477c0.675,0,1.182-0.338,1.688-0.844l2.869-4.389l3.038-1.688
			C181.008,110.409,180.84,109.565,180.333,109.565z"/>
		<path fill="#F69346" d="M154.844,105.177c0.338,0.338,0.506,0.507,0.506,0.507c0.169,0.169,0.507,0.337,1.014,0.169
			c0.337-0.169,0.506-0.507,0.337-0.677l0,0c0,0-0.169-0.168-0.337-0.506c-0.17-0.337-0.338-0.675-0.507-1.182
			c-0.169-0.506-0.169-1.013,0-1.519c0.169-0.507,0.507-1.183,0.844-1.857c0.338-0.675,0.845-1.181,1.183-2.025
			c0.337-0.675,0.337-1.519,0-2.194c-0.17-0.675-0.507-1.013-0.845-1.351c-0.338-0.337-0.507-0.506-0.507-0.506
			c-0.168-0.169-0.675-0.169-1.012-0.169c-0.338,0.169-0.507,0.506-0.338,0.675l0,0c0,0,0.168,0.169,0.168,0.338
			c0.169,0.169,0.338,0.676,0.338,1.013c0.169,0.507,0,1.014-0.168,1.52c-0.17,0.507-0.676,1.181-1.183,1.856
			c-0.337,0.675-0.844,1.351-0.844,2.194c-0.169,0.844,0,1.52,0.338,2.026C154.168,104.502,154.676,105.008,154.844,105.177z"/>
		<path fill="#F69346" d="M159.908,105.177c0.337,0.338,0.506,0.507,0.506,0.507c0.168,0.169,0.506,0.337,1.013,0.169
			c0.338-0.169,0.507-0.507,0.338-0.677l0,0c0,0-0.169-0.168-0.338-0.506c-0.169-0.337-0.338-0.675-0.507-1.182
			c-0.168-0.506-0.168-1.013,0-1.519c0.169-0.507,0.507-1.183,0.845-1.857s0.845-1.181,1.181-2.025c0.339-0.675,0.339-1.519,0-2.194
			c-0.168-0.675-0.506-1.013-0.843-1.351c-0.338-0.337-0.507-0.506-0.507-0.506c-0.169-0.169-0.676-0.169-1.013-0.169
			c-0.338,0.169-0.507,0.506-0.338,0.675l0,0c0,0,0.169,0.169,0.169,0.338c0.168,0.169,0.338,0.676,0.338,1.013
			c0.168,0.507,0,1.014-0.169,1.52c-0.169,0.507-0.675,1.181-1.182,1.856c-0.338,0.675-0.845,1.351-0.845,2.194
			c-0.168,0.844,0,1.52,0.338,2.026C159.232,104.502,159.57,105.008,159.908,105.177z"/>
		<path fill="#F69346" d="M164.803,105.177c0.338,0.338,0.507,0.507,0.507,0.507c0.169,0.169,0.507,0.337,1.013,0.169
			c0.338-0.169,0.506-0.507,0.338-0.677l0,0c0,0-0.169-0.168-0.338-0.506c-0.168-0.337-0.338-0.675-0.506-1.182
			c-0.169-0.506-0.169-1.013,0-1.519c0.168-0.507,0.506-1.183,0.844-1.857s0.844-1.181,1.182-2.025c0.338-0.675,0.338-1.519,0-2.194
			c-0.169-0.675-0.507-1.013-0.844-1.351c-0.338-0.337-0.507-0.506-0.507-0.506c-0.169-0.169-0.675-0.169-1.013-0.169
			c-0.338,0.169-0.506,0.506-0.338,0.675l0,0c0,0,0.169,0.169,0.169,0.338c0.169,0.169,0.338,0.676,0.338,1.013
			c0.169,0.507,0,1.014-0.169,1.52c-0.169,0.507-0.676,1.181-1.182,1.856c-0.338,0.675-0.844,1.351-0.844,2.194
			c-0.169,0.844,0,1.52,0.337,2.026C164.127,104.502,164.635,105.008,164.803,105.177z"/>
		<path fill="#F69346" d="M82.934,96.906c-3.039,1.519-5.571,3.713-7.596,6.413c-2.87,3.884-12.491,22.451-12.491,22.451
			s-4.389-2.194-9.284-4.558c-0.507-0.338-1.182-0.506-1.688-0.844H34.825c-0.844,3.039,0.168,6.076,4.22,7.934
			c4.558,2.194,25.49,12.829,27.346,13.335c2.026,0.507,4.389-1.013,5.402-3.039l9.622-18.904l-3.714,39.33
			c-0.169,2.363,1.351,4.389,3.714,4.728c6.245,0.843,12.66,1.35,19.243,1.35c1.856,0,3.883,0,5.74-0.169v-58.574l-19.75-11.141
			C85.297,95.724,84.116,96.23,82.934,96.906z M99.308,120.2c1.183,0,2.026,0.844,2.026,2.025c0,1.183-0.844,2.025-2.026,2.025
			c-1.181,0-2.025-0.843-2.025-2.025C97.282,121.213,98.126,120.2,99.308,120.2z M99.308,129.484c1.183,0,2.026,0.845,2.026,2.026
			c0,1.181-0.844,2.024-2.026,2.024c-1.181,0-2.025-0.844-2.025-2.024C97.282,130.497,98.126,129.484,99.308,129.484z
			 M99.308,138.937c1.183,0,2.026,0.845,2.026,2.026s-0.844,2.025-2.026,2.025c-1.181,0-2.025-0.844-2.025-2.025
			S98.126,138.937,99.308,138.937z M99.308,148.221c1.183,0,2.026,0.845,2.026,2.026s-0.844,2.024-2.026,2.024
			c-1.181,0-2.025-0.843-2.025-2.024S98.126,148.221,99.308,148.221z"/>
		<path fill="#F69346" d="M148.768,120.369c-5.402,2.532-11.142,5.401-11.142,5.401s-2.363-4.558-5.064-9.79
			c-2.7-5.064-5.908-10.804-7.259-12.661c-2.025-2.7-4.727-5.063-7.596-6.413c-1.182-0.676-2.7-1.183-3.883-1.688
			c-3.713,2.701-8.271,4.22-13.334,4.22c-0.338,0-0.676,0-0.845,0l8.946,5.064c0.507,0.168,0.676,0.676,0.676,1.182v59.249
			c3.375-0.169,6.752-0.507,10.127-1.013c2.363-0.338,4.052-2.362,3.715-4.727l-3.883-39.331l9.791,18.906
			c1.012,2.026,3.037,3.714,5.401,3.038c2.363-0.675,21.944-10.634,27.346-13.335c4.727-2.363,5.739-5.233,4.896-7.934h-17.893
			V120.369z"/>
		<path fill="#F69346" d="M82.765,76.312c0,9.622,7.765,17.387,17.387,17.387c9.621,0,17.387-7.765,17.387-17.387
			c0-2.532-0.507-4.727-1.352-6.921H84.116C83.271,71.585,82.765,73.779,82.765,76.312z"/>
		<path fill="#F69346" d="M86.141,51.835L84.791,66.69h30.553l-1.35-14.855c5.4-0.169,9.789-4.727,9.789-10.128
			c0-5.57-4.557-10.128-10.127-10.128c-1.014,0-2.025,0.169-3.039,0.506c-2.363-3.207-6.246-5.232-10.634-5.232
			c-4.389,0-8.103,2.025-10.634,5.232c-1.013-0.337-2.025-0.506-3.039-0.506c-5.57,0-10.128,4.558-10.128,10.128
			C76.351,47.108,80.74,51.666,86.141,51.835z"/>
	</g>
</g>
<circle fill="none" stroke="#F69346" stroke-miterlimit="10" cx="100.506" cy="99.494" r="98.494"/>
<g>
	<g>
		<g>
			<path fill="#F69346" d="M98.928,137.964c-8.182,0-16.51-3.067-22.792-9.351c-6.137-6.137-9.497-14.172-9.497-22.793
				c0-8.619,3.36-16.656,9.497-22.792c12.564-12.565,33.02-12.565,45.585,0c6.137,6.136,9.497,14.173,9.497,22.792
				c0,8.621-3.36,16.656-9.497,22.793C115.438,134.896,107.11,137.964,98.928,137.964z M98.928,76.6
				c-7.451,0-15.048,2.922-20.747,8.62c-5.552,5.552-8.62,12.857-8.62,20.747s3.068,15.195,8.62,20.748
				c11.396,11.396,29.952,11.396,41.495,0c5.552-5.553,8.62-12.858,8.62-20.748s-3.068-15.341-8.62-20.894
				C113.978,79.375,106.38,76.6,98.928,76.6z"/>
		</g>
		<g>
			<path fill="#F69346" d="M78.181,171.568c-0.146,0-0.292,0-0.584-0.146c-0.584-0.146-0.877-0.73-0.877-1.315
				c0-0.729-1.168-16.363-20.602-20.454c-0.584-0.146-1.022-0.585-1.168-1.169c-4.091-19.433-19.725-20.602-20.455-20.602
				c-0.584,0-1.022-0.438-1.315-0.877c-0.146-0.584-0.146-1.168,0.293-1.607c21.331-21.331,44.416,0.73,44.562,1.023
				c0.292,0.293,22.355,23.231,1.023,44.563C78.912,171.423,78.474,171.568,78.181,171.568z M57.58,147.169
				c15.487,3.652,20.164,14.464,21.478,19.87c6.43-7.597,8.182-16.071,4.968-25.422c-2.63-7.598-7.744-13.004-7.89-13.004
				c-0.877-0.73-19.725-18.848-38.426-2.922C43.115,127.006,53.927,131.682,57.58,147.169z"/>
		</g>
		<g>
			<path fill="#F69346" d="M143.782,95.301c-13.441,0-23.961-10.081-24.106-10.228c-0.293-0.146-22.354-23.23-1.023-44.563
				c0.438-0.438,1.023-0.585,1.607-0.292c0.585,0.146,0.877,0.73,0.877,1.314c0,0.73,1.169,16.364,20.601,20.455
				c0.585,0.146,1.023,0.585,1.168,1.169c4.092,19.433,19.727,20.602,20.457,20.602c0.584,0,1.021,0.438,1.313,0.877
				c0.147,0.584,0.147,1.169-0.292,1.606C157.371,92.964,150.212,95.301,143.782,95.301z M118.799,44.603
				c-6.429,7.597-8.182,16.071-4.968,25.422c2.631,7.598,7.744,13.004,7.89,13.004c0.585,0.584,9.936,9.496,21.771,9.496
				c5.26,0,10.957-1.753,16.51-6.574c-5.406-1.314-16.218-5.99-19.87-21.478C124.788,60.819,120.113,50.008,118.799,44.603z"/>
		</g>
		<g>
			<g>
				<path fill="#F69346" d="M77.597,152.721l-2.484-1.606c6.283-9.789,1.9-20.309,0.877-22.501
					c-2.045-0.877-12.565-5.26-22.354,1.022l-1.607-2.483c12.42-7.89,25.277-1.169,25.861-0.877
					c0.292,0.146,0.438,0.293,0.585,0.585C78.765,127.445,85.487,140.302,77.597,152.721z"/>
			</g>
		</g>
		<g>
			
				<rect x="58.483" y="133.885" transform="matrix(-0.7071 0.7071 -0.7071 -0.7071 214.2462 181.9556)" fill="#F69346" width="21.916" height="2.923"/>
		</g>
		<g>
			<g>
				<path fill="#F69346" d="M132.532,88.288c-7.013,0-12.272-2.776-12.564-2.922c-0.292-0.146-0.438-0.293-0.585-0.585
					c-0.292-0.584-7.013-13.441,0.877-25.861l2.484,1.607c-6.282,9.789-1.899,20.31-0.877,22.501
					c2.046,0.877,12.565,5.26,22.354-1.023l1.606,2.484C141.3,87.411,136.623,88.288,132.532,88.288z"/>
			</g>
		</g>
		<g>
			
				<rect x="117.455" y="74.836" transform="matrix(-0.7071 0.7071 -0.7071 -0.7071 273.1644 39.4463)" fill="#F69346" width="21.916" height="2.922"/>
		</g>
		<g>
			<path fill="#F69346" d="M126.104,121.601c-0.439,0-0.73-0.146-1.023-0.438L83.44,79.667c-0.292-0.292-0.438-0.73-0.438-1.314
				c0-0.438,0.292-0.876,0.73-1.022c3.945-2.046,8.182-3.215,12.564-3.653c0.438,0,0.877,0.146,1.169,0.438l33.021,33.021
				c0.292,0.292,0.438,0.731,0.438,1.169c-0.292,4.384-1.607,8.62-3.653,12.565c-0.146,0.438-0.584,0.73-1.022,0.73
				C126.25,121.601,126.25,121.601,126.104,121.601z M87.093,79.084l38.719,38.718c1.315-2.776,2.046-5.844,2.338-8.913
				L96.006,76.746C92.938,77.037,89.869,77.768,87.093,79.084z"/>
		</g>
		<g>
			<path fill="#F69346" d="M101.266,137.964c-0.438,0-0.73-0.146-1.022-0.438l-33.021-33.02c-0.292-0.292-0.438-0.73-0.438-1.169
				c0.293-4.384,1.607-8.62,3.653-12.565c0.146-0.438,0.584-0.73,1.023-0.73c0.438,0,0.876,0.146,1.315,0.438l41.64,41.641
				c0.293,0.292,0.439,0.73,0.439,1.315c0,0.438-0.293,0.876-0.73,1.022C110.032,136.357,105.796,137.525,101.266,137.964
				C101.412,137.964,101.412,137.964,101.266,137.964z M69.853,102.898l32.143,32.144c3.069-0.292,6.137-1.169,8.913-2.338
				L72.191,93.986C70.875,96.762,70.145,99.83,69.853,102.898z"/>
		</g>
	</g>
</g>
</svg>
