<?xml version="1.0" encoding="utf-8"?>
<!-- Generator: Adobe Illustrator 16.0.0, SVG Export Plug-In . SVG Version: 6.00 Build 0)  -->
<svg version="1.2" baseProfile="tiny" id="Layer_1" xmlns="http://www.w3.org/2000/svg" xmlns:xlink="http://www.w3.org/1999/xlink"
	 x="0px" y="0px" width="103.04px" height="103.041px" viewBox="0 0 103.04 103.041" xml:space="preserve">
<g>
	<g>
		<path fill="#99999A" d="M87.659,21.602l-4.53,1.677L18.514,47.198l12.711,6.298l0.003-0.002c0.388,0.192,0.625,0.564,0.662,0.966
			l3.768,20.725l6.591-11.753l-0.001-0.001c0.323-0.577,1.055-0.783,1.632-0.459c0.124,0.069,0.231,0.158,0.32,0.26l18.125,17.87
			L87.659,21.602L87.659,21.602z M82.304,21.031l7.068-2.616c0.291-0.126,0.631-0.137,0.946-0.003
			c0.608,0.259,0.893,0.964,0.634,1.573l-0.003-0.001L63.87,83.576c-0.057,0.165-0.149,0.32-0.28,0.453
			c-0.465,0.471-1.224,0.477-1.696,0.012l0.003-0.002L43.57,65.97L36.151,79.2c-0.162,0.328-0.473,0.578-0.859,0.648
			c-0.652,0.119-1.276-0.313-1.396-0.965l0.005-0.005l-4.273-23.505L15.04,48.146c-0.299-0.123-0.547-0.365-0.668-0.692
			c-0.229-0.621,0.087-1.311,0.709-1.541l0.003,0.001L82.304,21.031L82.304,21.031z"/>
		<path fill="#99999A" d="M30.086,53.538c-0.568,0.336-0.757,1.07-0.421,1.64s1.07,0.758,1.64,0.422l59.153-35.054
			c0.568-0.336,0.757-1.07,0.42-1.64c-0.336-0.569-1.07-0.758-1.639-0.422L30.086,53.538z"/>
		<path fill="#99999A" d="M90.672,20.381c0.479-0.455,0.497-1.212,0.042-1.691c-0.455-0.478-1.212-0.497-1.691-0.041L42.468,63.15
			c-0.479,0.455-0.497,1.212-0.042,1.691c0.456,0.479,1.213,0.497,1.691,0.042L90.672,20.381z"/>
	</g>
	<rect x="1.506" y="0.184" fill="none" width="102.333" height="102.333"/>
</g>
</svg>
