<?xml version="1.0" encoding="utf-8"?>
<!-- Generator: Adobe Illustrator 16.0.0, SVG Export Plug-In . SVG Version: 6.00 Build 0)  -->
<svg version="1.2" baseProfile="tiny" id="Layer_1" xmlns="http://www.w3.org/2000/svg" xmlns:xlink="http://www.w3.org/1999/xlink"
	 x="0px" y="0px" width="200px" height="200px" viewBox="0 0 200 200" xml:space="preserve">
<g display="none">
	<circle display="inline" fill="none" stroke="#F69346" stroke-miterlimit="10" cx="100.493" cy="99.494" r="98.493"/>
	<g display="inline">
		<path fill="#F69346" d="M120.756,91.18V77.494c0-4.227,3.422-7.648,7.648-7.648h16.301c2.818,0,5.436,1.609,6.844,4.228
			l7.045,13.685c1.408,2.416,1.207,5.233-0.203,7.446c-1.408,2.215-4.023,3.624-6.641,3.624h-23.146
			C124.178,98.828,120.756,95.406,120.756,91.18z M144.705,74.073h-16.102c-2.01,0-3.621,1.609-3.621,3.622V91.38
			c0,2.014,1.611,3.622,3.621,3.622h23.146c1.408,0,2.617-0.604,3.221-1.809c0.604-1.209,0.604-2.417,0-3.624l-7.045-13.686
			c-0.604-1.209-1.811-2.013-3.221-2.013V74.073z"/>
		<path fill="#F69346" d="M120.555,137.872c0-9.057,7.246-16.302,16.303-16.302s16.301,7.245,16.301,16.302
			s-7.244,16.303-16.301,16.303C128.002,154.175,120.555,146.728,120.555,137.872z M124.58,137.872
			c0,6.843,5.434,12.277,12.277,12.277c6.842,0,12.277-5.435,12.277-12.277s-5.436-12.276-12.277-12.276
			C130.215,125.596,124.58,131.029,124.58,137.872z"/>
		<path fill="#F69346" d="M40.854,137.872c0-9.057,7.247-16.302,16.302-16.302c9.057,0,16.303,7.245,16.303,16.302
			s-7.247,16.303-16.303,16.303C48.101,154.175,40.854,146.728,40.854,137.872z M44.88,137.872c0,6.843,5.434,12.277,12.277,12.277
			c6.844,0,12.277-5.435,12.277-12.277S64,125.596,57.157,125.596C50.314,125.596,44.88,131.029,44.88,137.872z"/>
		<circle fill="#F69346" cx="136.857" cy="137.873" r="4.025"/>
		<circle fill="#F69346" cx="57.157" cy="137.873" r="4.025"/>
		<path fill="#F69346" d="M23.345,132.035V65.62c0-4.228,3.421-7.648,7.648-7.648H151.75c2.617,0,5.232,1.609,6.641,4.024
			l19.523,34.618c0.604,1.208,1.006,2.414,1.006,3.823v31.8c0,4.227-3.42,7.647-7.646,7.647h-22.139v-2.013
			c0-6.843-5.436-12.276-12.277-12.276c-6.844,0-12.277,5.434-12.277,12.276v2.013H69.434v-2.013
			c0-6.843-5.434-12.276-12.277-12.276c-6.843,0-12.277,5.434-12.277,12.276v2.013H31.194
			C26.968,139.885,23.345,136.464,23.345,132.035z M57.358,121.57c8.252,0,15.095,6.239,16.101,14.289h47.498
			c1.006-8.05,7.85-14.289,16.102-14.289s15.094,6.239,16.1,14.289h18.316c2.012,0,3.623-1.609,3.623-3.622v-31.8
			c0-0.604,0-1.209-0.404-1.812l-19.521-34.617c-0.604-1.005-1.811-1.811-3.221-1.811H31.194c-2.012,0-3.623,1.61-3.623,3.622
			v66.417c0,2.013,1.61,3.622,3.623,3.622h9.862C42.063,127.81,49.106,121.57,57.358,121.57z"/>
		<path fill="#F69346" d="M59.774,52.135c1.408-2.414,4.025-3.824,6.641-3.824h17.51c2.616,0,5.232,1.41,6.642,3.824l5.836,9.861
			H53.937L59.774,52.135z M87.145,54.148c-0.805-1.208-2.013-1.813-3.22-1.813h-17.51c-1.408,0-2.616,0.604-3.22,1.813l-2.214,3.823
			h28.378L87.145,54.148z"/>
		<path fill="#F69346" d="M52.125,106.475l0.201,3.625c0.201,2.012,2.012,3.622,4.025,3.622h37.637c2.012,0,3.823-1.61,4.024-3.622
			l0.201-3.625c0-1.408-0.805-2.213-2.013-2.213H54.138C52.931,104.262,52.125,105.066,52.125,106.475z"/>
		<path fill="#F69346" d="M53.131,90.776c0.605,0.806,1.41,1.208,2.416,1.208h39.044c1.007,0,2.013-0.402,2.617-1.208
			c0.604-0.805,0.805-1.811,0.604-2.816C96.001,78.902,86.34,72.462,75.07,72.462c-11.069,0-20.731,6.44-22.743,15.498
			C52.125,89.168,52.327,90.174,53.131,90.776z M92.982,88.16c0-0.402,0.403-0.805,0.805-0.805c0.402,0,0.805,0.402,0.805,0.805
			c0,0.403-0.403,0.806-0.805,0.806C93.385,88.966,92.982,88.563,92.982,88.16z M87.347,85.946c0-0.401,0.402-0.804,0.804-0.804
			c0.403,0,0.806,0.402,0.806,0.804c0,0.402-0.402,0.805-0.806,0.805C87.749,86.751,87.347,86.349,87.347,85.946z M85.736,79.908
			c0-0.402,0.402-0.805,0.805-0.805c0.402,0,0.805,0.402,0.805,0.805s-0.403,0.806-0.805,0.806
			C85.938,80.714,85.736,80.311,85.736,79.908z M81.913,89.168c0-0.403,0.402-0.807,0.805-0.807c0.403,0,0.806,0.403,0.806,0.807
			c0,0.401-0.402,0.804-0.806,0.804C82.315,89.972,81.913,89.569,81.913,89.168z M81.107,83.33c0-0.403,0.403-0.805,0.806-0.805
			s0.805,0.401,0.805,0.805c0,0.402-0.402,0.805-0.805,0.805S81.107,83.732,81.107,83.33z M78.491,77.292
			c0-0.402,0.402-0.805,0.806-0.805c0.402,0,0.805,0.402,0.805,0.805c0,0.403-0.403,0.804-0.805,0.804
			C78.893,78.096,78.692,77.695,78.491,77.292z M74.466,86.551c0-0.402,0.402-0.805,0.805-0.805c0.402,0,0.805,0.402,0.805,0.805
			c0,0.401-0.403,0.805-0.805,0.805C74.868,87.355,74.466,87.154,74.466,86.551z M73.661,80.514c0-0.404,0.403-0.806,0.805-0.806
			c0.402,0,0.805,0.401,0.805,0.806c0,0.402-0.403,0.805-0.805,0.805C74.064,81.318,73.862,81.116,73.661,80.514z M68.025,83.732
			c0-0.402,0.402-0.806,0.805-0.806c0.402,0,0.805,0.403,0.805,0.806s-0.402,0.806-0.805,0.806
			C68.428,84.538,68.025,84.135,68.025,83.732z M65.007,88.765c0-0.403,0.402-0.805,0.805-0.805c0.402,0,0.804,0.401,0.804,0.805
			s-0.402,0.805-0.804,0.805C65.409,89.569,65.007,89.369,65.007,88.765z M64.202,78.299c0-0.401,0.402-0.805,0.805-0.805
			c0.402,0,0.805,0.403,0.805,0.805c0,0.402-0.403,0.805-0.805,0.805C64.604,79.104,64.402,78.902,64.202,78.299z M59.371,83.33
			c0-0.403,0.403-0.805,0.805-0.805s0.805,0.401,0.805,0.805c0,0.402-0.402,0.805-0.805,0.805S59.371,83.732,59.371,83.33z
			 M55.95,88.361c0-0.401,0.402-0.806,0.804-0.806s0.806,0.404,0.806,0.806c0,0.403-0.403,0.807-0.806,0.807
			C56.352,89.168,56.151,88.966,55.95,88.361z"/>
		<path fill="#F69346" d="M52.327,100.64c0,1.207,1.007,2.212,2.214,2.212H95.8c1.208,0,2.213-1.005,2.213-2.212
			c0-1.208-1.006-2.216-2.213-2.216H54.339C53.333,98.424,52.327,99.432,52.327,100.64z"/>
		<path fill="#F69346" d="M51.522,97.419c-0.403-0.201-0.604-0.805-0.403-1.209c0.806-1.608,2.818-2.213,3.02-2.213
			c2.415-0.604,5.233,1.207,5.837,1.609c1.408,0.604,3.42-0.402,4.226-1.005c3.421-2.215,7.044,0,7.245,0
			c3.421,2.013,6.441,0.2,6.642,0.2c4.83-2.615,9.056,0,9.66,0.402c2.214,1.006,3.019,0.202,4.427-0.603
			c1.611-1.007,3.624-2.215,7.044,0c0.403,0.2,0.403,0.805,0.202,1.207c-0.202,0.401-0.806,0.401-1.208,0.201
			c-2.415-1.611-3.623-0.806-5.232,0c-1.408,1.006-3.623,2.214-6.038,0.604c0,0-4.025-2.617-8.051-0.404
			c-0.201,0-4.227,2.214-8.453-0.2c-0.202-0.201-3.019-1.812-5.434-0.201c-0.202,0-3.421,2.213-6.038,1.007
			c-0.202,0-3.019-1.813-4.428-1.409c-0.403,0.2-1.61,0.604-2.013,1.409C52.327,97.016,51.925,97.419,51.522,97.419z"/>
	</g>
</g>
<circle fill="none" stroke="#F69346" stroke-miterlimit="10" cx="100.621" cy="99.494" r="98.494"/>
<g>
	<g>
		<path fill="#F69346" d="M54.406,116.824l2.87-4.389l3.039-1.688c0.506-0.337,0.337-1.013-0.338-1.013H20.983
			c-0.506,0-0.844,0.844-0.337,1.013l3.038,1.688l2.87,4.389c0.337,0.506,1.013,0.844,1.688,0.844h24.477
			C53.394,117.668,54.068,117.33,54.406,116.824z"/>
		<path fill="#F69346" d="M34.656,105.177c0.338,0.338,0.506,0.507,0.506,0.507c0.169,0.169,0.506,0.337,1.013,0.169
			c0.338-0.169,0.507-0.507,0.338-0.677l0,0c0,0-0.168-0.168-0.338-0.506c-0.168-0.337-0.337-0.675-0.506-1.182
			c-0.168-0.506-0.168-1.013,0-1.519c0.169-0.507,0.506-1.183,0.844-1.857s0.844-1.181,1.182-2.025c0.338-0.675,0.338-1.519,0-2.194
			c-0.169-0.675-0.506-1.013-0.844-1.351c-0.338-0.337-0.506-0.506-0.506-0.506c-0.169-0.169-0.676-0.169-1.013-0.169
			c-0.338,0.169-0.507,0.506-0.338,0.675l0,0c0,0,0.168,0.169,0.168,0.338c0.169,0.169,0.338,0.676,0.338,1.013
			c0.168,0.507,0,1.014-0.168,1.52c-0.169,0.507-0.676,1.181-1.182,1.856c-0.337,0.675-0.844,1.351-0.844,2.194
			c-0.169,0.844,0,1.52,0.337,2.026C33.981,104.502,34.319,105.008,34.656,105.177z"/>
		<path fill="#F69346" d="M39.551,105.177c0.338,0.338,0.507,0.507,0.507,0.507c0.168,0.169,0.506,0.337,1.013,0.169
			c0.337-0.169,0.506-0.507,0.337-0.677l0,0c0,0-0.168-0.168-0.337-0.506c-0.169-0.337-0.337-0.675-0.506-1.182
			c-0.169-0.506-0.169-1.013,0-1.519c0.169-0.507,0.506-1.183,0.844-1.857c0.338-0.675,0.844-1.181,1.182-2.025
			c0.338-0.675,0.338-1.519,0-2.194c-0.168-0.675-0.506-1.013-0.844-1.351c-0.338-0.337-0.506-0.506-0.506-0.506
			c-0.169-0.169-0.675-0.169-1.013-0.169c-0.338,0.169-0.506,0.506-0.338,0.675l0,0c0,0,0.169,0.169,0.169,0.338
			c0.168,0.169,0.337,0.676,0.337,1.013c0.169,0.507,0,1.014-0.168,1.52c-0.169,0.507-0.676,1.181-1.182,1.856
			c-0.337,0.675-0.844,1.351-0.844,2.194c-0.168,0.844,0,1.52,0.338,2.026C38.876,104.502,39.383,105.008,39.551,105.177z"/>
		<path fill="#F69346" d="M44.616,105.177c0.338,0.338,0.506,0.507,0.506,0.507c0.169,0.169,0.506,0.337,1.013,0.169
			c0.338-0.169,0.506-0.507,0.338-0.677l0,0c0,0-0.169-0.168-0.338-0.506c-0.169-0.337-0.338-0.675-0.506-1.182
			c-0.168-0.506-0.168-1.013,0-1.519c0.168-0.507,0.506-1.183,0.844-1.857c0.337-0.675,0.844-1.181,1.182-2.025
			c0.337-0.675,0.337-1.519,0-2.194c-0.169-0.675-0.506-1.013-0.844-1.351c-0.337-0.337-0.506-0.506-0.506-0.506
			c-0.169-0.169-0.675-0.169-1.013-0.169c-0.337,0.169-0.506,0.506-0.337,0.675l0,0c0,0,0.168,0.169,0.168,0.338
			c0.169,0.169,0.338,0.676,0.338,1.013c0.168,0.507,0,1.014-0.169,1.52c-0.169,0.507-0.675,1.181-1.182,1.856
			c-0.338,0.675-0.844,1.351-0.844,2.194c-0.168,0.844,0,1.52,0.338,2.026C43.94,104.502,44.278,105.008,44.616,105.177z"/>
		<path fill="#F69346" d="M180.333,109.565H141.34c-0.507,0-0.844,0.844-0.338,1.013l3.038,1.688l2.87,4.389
			c0.338,0.506,1.013,0.844,1.688,0.844h24.477c0.675,0,1.182-0.338,1.688-0.844l2.869-4.389l3.038-1.688
			C181.008,110.409,180.84,109.565,180.333,109.565z"/>
		<path fill="#F69346" d="M154.844,105.177c0.338,0.338,0.506,0.507,0.506,0.507c0.169,0.169,0.507,0.337,1.014,0.169
			c0.337-0.169,0.506-0.507,0.337-0.677l0,0c0,0-0.169-0.168-0.337-0.506c-0.17-0.337-0.338-0.675-0.507-1.182
			c-0.169-0.506-0.169-1.013,0-1.519c0.169-0.507,0.507-1.183,0.844-1.857c0.338-0.675,0.845-1.181,1.183-2.025
			c0.337-0.675,0.337-1.519,0-2.194c-0.17-0.675-0.507-1.013-0.845-1.351c-0.338-0.337-0.507-0.506-0.507-0.506
			c-0.168-0.169-0.675-0.169-1.012-0.169c-0.338,0.169-0.507,0.506-0.338,0.675l0,0c0,0,0.168,0.169,0.168,0.338
			c0.169,0.169,0.338,0.676,0.338,1.013c0.169,0.507,0,1.014-0.168,1.52c-0.17,0.507-0.676,1.181-1.183,1.856
			c-0.337,0.675-0.844,1.351-0.844,2.194c-0.169,0.844,0,1.52,0.338,2.026C154.168,104.502,154.676,105.008,154.844,105.177z"/>
		<path fill="#F69346" d="M159.908,105.177c0.337,0.338,0.506,0.507,0.506,0.507c0.168,0.169,0.506,0.337,1.013,0.169
			c0.338-0.169,0.507-0.507,0.338-0.677l0,0c0,0-0.169-0.168-0.338-0.506c-0.169-0.337-0.338-0.675-0.507-1.182
			c-0.168-0.506-0.168-1.013,0-1.519c0.169-0.507,0.507-1.183,0.845-1.857s0.845-1.181,1.181-2.025c0.339-0.675,0.339-1.519,0-2.194
			c-0.168-0.675-0.506-1.013-0.843-1.351c-0.338-0.337-0.507-0.506-0.507-0.506c-0.169-0.169-0.676-0.169-1.013-0.169
			c-0.338,0.169-0.507,0.506-0.338,0.675l0,0c0,0,0.169,0.169,0.169,0.338c0.168,0.169,0.338,0.676,0.338,1.013
			c0.168,0.507,0,1.014-0.169,1.52c-0.169,0.507-0.675,1.181-1.182,1.856c-0.338,0.675-0.845,1.351-0.845,2.194
			c-0.168,0.844,0,1.52,0.338,2.026C159.232,104.502,159.57,105.008,159.908,105.177z"/>
		<path fill="#F69346" d="M164.803,105.177c0.338,0.338,0.507,0.507,0.507,0.507c0.169,0.169,0.507,0.337,1.013,0.169
			c0.338-0.169,0.506-0.507,0.338-0.677l0,0c0,0-0.169-0.168-0.338-0.506c-0.168-0.337-0.338-0.675-0.506-1.182
			c-0.169-0.506-0.169-1.013,0-1.519c0.168-0.507,0.506-1.183,0.844-1.857s0.844-1.181,1.182-2.025c0.338-0.675,0.338-1.519,0-2.194
			c-0.169-0.675-0.507-1.013-0.844-1.351c-0.338-0.337-0.507-0.506-0.507-0.506c-0.169-0.169-0.675-0.169-1.013-0.169
			c-0.338,0.169-0.506,0.506-0.338,0.675l0,0c0,0,0.169,0.169,0.169,0.338c0.169,0.169,0.338,0.676,0.338,1.013
			c0.169,0.507,0,1.014-0.169,1.52c-0.169,0.507-0.676,1.181-1.182,1.856c-0.338,0.675-0.844,1.351-0.844,2.194
			c-0.169,0.844,0,1.52,0.337,2.026C164.127,104.502,164.635,105.008,164.803,105.177z"/>
		<path fill="#F69346" d="M82.934,96.906c-3.039,1.519-5.571,3.713-7.596,6.413c-2.87,3.884-12.491,22.451-12.491,22.451
			s-4.389-2.194-9.284-4.558c-0.507-0.338-1.182-0.506-1.688-0.844H34.825c-0.844,3.039,0.168,6.076,4.22,7.934
			c4.558,2.194,25.49,12.829,27.346,13.335c2.026,0.507,4.389-1.013,5.402-3.039l9.622-18.904l-3.714,39.33
			c-0.169,2.363,1.351,4.389,3.714,4.728c6.245,0.843,12.66,1.35,19.243,1.35c1.856,0,3.883,0,5.74-0.169v-58.574l-19.75-11.141
			C85.297,95.724,84.116,96.23,82.934,96.906z M99.308,120.2c1.183,0,2.026,0.844,2.026,2.025c0,1.183-0.844,2.025-2.026,2.025
			c-1.181,0-2.025-0.843-2.025-2.025C97.282,121.213,98.126,120.2,99.308,120.2z M99.308,129.484c1.183,0,2.026,0.845,2.026,2.026
			c0,1.181-0.844,2.024-2.026,2.024c-1.181,0-2.025-0.844-2.025-2.024C97.282,130.497,98.126,129.484,99.308,129.484z
			 M99.308,138.937c1.183,0,2.026,0.845,2.026,2.026s-0.844,2.025-2.026,2.025c-1.181,0-2.025-0.844-2.025-2.025
			S98.126,138.937,99.308,138.937z M99.308,148.221c1.183,0,2.026,0.845,2.026,2.026s-0.844,2.024-2.026,2.024
			c-1.181,0-2.025-0.843-2.025-2.024S98.126,148.221,99.308,148.221z"/>
		<path fill="#F69346" d="M148.768,120.369c-5.402,2.532-11.142,5.401-11.142,5.401s-2.363-4.558-5.064-9.79
			c-2.7-5.064-5.908-10.804-7.259-12.661c-2.025-2.7-4.727-5.063-7.596-6.413c-1.182-0.676-2.7-1.183-3.883-1.688
			c-3.713,2.701-8.271,4.22-13.334,4.22c-0.338,0-0.676,0-0.845,0l8.946,5.064c0.507,0.168,0.676,0.676,0.676,1.182v59.249
			c3.375-0.169,6.752-0.507,10.127-1.013c2.363-0.338,4.052-2.362,3.715-4.727l-3.883-39.331l9.791,18.906
			c1.012,2.026,3.037,3.714,5.401,3.038c2.363-0.675,21.944-10.634,27.346-13.335c4.727-2.363,5.739-5.233,4.896-7.934h-17.893
			V120.369z"/>
		<path fill="#F69346" d="M82.765,76.312c0,9.622,7.765,17.387,17.387,17.387c9.621,0,17.387-7.765,17.387-17.387
			c0-2.532-0.507-4.727-1.352-6.921H84.116C83.271,71.585,82.765,73.779,82.765,76.312z"/>
		<path fill="#F69346" d="M86.141,51.835L84.791,66.69h30.553l-1.35-14.855c5.4-0.169,9.789-4.727,9.789-10.128
			c0-5.57-4.557-10.128-10.127-10.128c-1.014,0-2.025,0.169-3.039,0.506c-2.363-3.207-6.246-5.232-10.634-5.232
			c-4.389,0-8.103,2.025-10.634,5.232c-1.013-0.337-2.025-0.506-3.039-0.506c-5.57,0-10.128,4.558-10.128,10.128
			C76.351,47.108,80.74,51.666,86.141,51.835z"/>
	</g>
</g>
</svg>
