<?xml version="1.0" encoding="utf-8"?>
<!-- Generator: Adobe Illustrator 16.0.0, SVG Export Plug-In . SVG Version: 6.00 Build 0)  -->
<svg version="1.2" baseProfile="tiny" id="Layer_1" xmlns="http://www.w3.org/2000/svg" xmlns:xlink="http://www.w3.org/1999/xlink"
	 x="0px" y="0px" width="200px" height="200px" viewBox="0 0 200 200" xml:space="preserve">
<g>
	<circle fill="none" stroke="#F69346" stroke-miterlimit="10" cx="100.493" cy="99.494" r="98.493"/>
	<g>
		<path fill="#F69346" d="M120.756,91.18V77.494c0-4.227,3.422-7.648,7.648-7.648h16.301c2.818,0,5.436,1.609,6.844,4.228
			l7.045,13.685c1.408,2.416,1.207,5.233-0.203,7.446c-1.408,2.215-4.023,3.624-6.641,3.624h-23.146
			C124.178,98.828,120.756,95.406,120.756,91.18z M144.705,74.073h-16.102c-2.01,0-3.621,1.609-3.621,3.622V91.38
			c0,2.014,1.611,3.622,3.621,3.622h23.146c1.408,0,2.617-0.604,3.221-1.809c0.604-1.209,0.604-2.417,0-3.624l-7.045-13.686
			c-0.604-1.209-1.811-2.013-3.221-2.013V74.073z"/>
		<path fill="#F69346" d="M120.555,137.872c0-9.057,7.246-16.302,16.303-16.302s16.301,7.245,16.301,16.302
			s-7.244,16.303-16.301,16.303C128.002,154.175,120.555,146.728,120.555,137.872z M124.58,137.872
			c0,6.843,5.434,12.277,12.277,12.277c6.842,0,12.277-5.435,12.277-12.277s-5.436-12.276-12.277-12.276
			C130.215,125.596,124.58,131.029,124.58,137.872z"/>
		<path fill="#F69346" d="M40.854,137.872c0-9.057,7.247-16.302,16.302-16.302c9.057,0,16.303,7.245,16.303,16.302
			s-7.247,16.303-16.303,16.303C48.101,154.175,40.854,146.728,40.854,137.872z M44.88,137.872c0,6.843,5.434,12.277,12.277,12.277
			c6.844,0,12.277-5.435,12.277-12.277S64,125.596,57.157,125.596C50.314,125.596,44.88,131.029,44.88,137.872z"/>
		<circle fill="#F69346" cx="136.857" cy="137.873" r="4.025"/>
		<circle fill="#F69346" cx="57.157" cy="137.873" r="4.025"/>
		<path fill="#F69346" d="M23.345,132.035V65.62c0-4.228,3.421-7.648,7.648-7.648H151.75c2.617,0,5.232,1.609,6.641,4.024
			l19.523,34.618c0.604,1.208,1.006,2.414,1.006,3.823v31.8c0,4.227-3.42,7.647-7.646,7.647h-22.139v-2.013
			c0-6.843-5.436-12.276-12.277-12.276c-6.844,0-12.277,5.434-12.277,12.276v2.013H69.434v-2.013
			c0-6.843-5.434-12.276-12.277-12.276c-6.843,0-12.277,5.434-12.277,12.276v2.013H31.194
			C26.968,139.885,23.345,136.464,23.345,132.035z M57.358,121.57c8.252,0,15.095,6.239,16.101,14.289h47.498
			c1.006-8.05,7.85-14.289,16.102-14.289s15.094,6.239,16.1,14.289h18.316c2.012,0,3.623-1.609,3.623-3.622v-31.8
			c0-0.604,0-1.209-0.404-1.812l-19.521-34.617c-0.604-1.005-1.811-1.811-3.221-1.811H31.194c-2.012,0-3.623,1.61-3.623,3.622
			v66.417c0,2.013,1.61,3.622,3.623,3.622h9.862C42.063,127.81,49.106,121.57,57.358,121.57z"/>
		<path fill="#F69346" d="M59.774,52.135c1.408-2.414,4.025-3.824,6.641-3.824h17.51c2.616,0,5.232,1.41,6.642,3.824l5.836,9.861
			H53.937L59.774,52.135z M87.145,54.148c-0.805-1.208-2.013-1.813-3.22-1.813h-17.51c-1.408,0-2.616,0.604-3.22,1.813l-2.214,3.823
			h28.378L87.145,54.148z"/>
		<path fill="#F69346" d="M52.125,106.475l0.201,3.625c0.201,2.012,2.012,3.622,4.025,3.622h37.637c2.012,0,3.823-1.61,4.024-3.622
			l0.201-3.625c0-1.408-0.805-2.213-2.013-2.213H54.138C52.931,104.262,52.125,105.066,52.125,106.475z"/>
		<path fill="#F69346" d="M53.131,90.776c0.605,0.806,1.41,1.208,2.416,1.208h39.044c1.007,0,2.013-0.402,2.617-1.208
			c0.604-0.805,0.805-1.811,0.604-2.816C96.001,78.902,86.34,72.462,75.07,72.462c-11.069,0-20.731,6.44-22.743,15.498
			C52.125,89.168,52.327,90.174,53.131,90.776z M92.982,88.16c0-0.402,0.403-0.805,0.805-0.805c0.402,0,0.805,0.402,0.805,0.805
			c0,0.403-0.403,0.806-0.805,0.806C93.385,88.966,92.982,88.563,92.982,88.16z M87.347,85.946c0-0.401,0.402-0.804,0.804-0.804
			c0.403,0,0.806,0.402,0.806,0.804c0,0.402-0.402,0.805-0.806,0.805C87.749,86.751,87.347,86.349,87.347,85.946z M85.736,79.908
			c0-0.402,0.402-0.805,0.805-0.805c0.402,0,0.805,0.402,0.805,0.805s-0.403,0.806-0.805,0.806
			C85.938,80.714,85.736,80.311,85.736,79.908z M81.913,89.168c0-0.403,0.402-0.807,0.805-0.807c0.403,0,0.806,0.403,0.806,0.807
			c0,0.401-0.402,0.804-0.806,0.804C82.315,89.972,81.913,89.569,81.913,89.168z M81.107,83.33c0-0.403,0.403-0.805,0.806-0.805
			s0.805,0.401,0.805,0.805c0,0.402-0.402,0.805-0.805,0.805S81.107,83.732,81.107,83.33z M78.491,77.292
			c0-0.402,0.402-0.805,0.806-0.805c0.402,0,0.805,0.402,0.805,0.805c0,0.403-0.403,0.804-0.805,0.804
			C78.893,78.096,78.692,77.695,78.491,77.292z M74.466,86.551c0-0.402,0.402-0.805,0.805-0.805c0.402,0,0.805,0.402,0.805,0.805
			c0,0.401-0.403,0.805-0.805,0.805C74.868,87.355,74.466,87.154,74.466,86.551z M73.661,80.514c0-0.404,0.403-0.806,0.805-0.806
			c0.402,0,0.805,0.401,0.805,0.806c0,0.402-0.403,0.805-0.805,0.805C74.064,81.318,73.862,81.116,73.661,80.514z M68.025,83.732
			c0-0.402,0.402-0.806,0.805-0.806c0.402,0,0.805,0.403,0.805,0.806s-0.402,0.806-0.805,0.806
			C68.428,84.538,68.025,84.135,68.025,83.732z M65.007,88.765c0-0.403,0.402-0.805,0.805-0.805c0.402,0,0.804,0.401,0.804,0.805
			s-0.402,0.805-0.804,0.805C65.409,89.569,65.007,89.369,65.007,88.765z M64.202,78.299c0-0.401,0.402-0.805,0.805-0.805
			c0.402,0,0.805,0.403,0.805,0.805c0,0.402-0.403,0.805-0.805,0.805C64.604,79.104,64.402,78.902,64.202,78.299z M59.371,83.33
			c0-0.403,0.403-0.805,0.805-0.805s0.805,0.401,0.805,0.805c0,0.402-0.402,0.805-0.805,0.805S59.371,83.732,59.371,83.33z
			 M55.95,88.361c0-0.401,0.402-0.806,0.804-0.806s0.806,0.404,0.806,0.806c0,0.403-0.403,0.807-0.806,0.807
			C56.352,89.168,56.151,88.966,55.95,88.361z"/>
		<path fill="#F69346" d="M52.327,100.64c0,1.207,1.007,2.212,2.214,2.212H95.8c1.208,0,2.213-1.005,2.213-2.212
			c0-1.208-1.006-2.216-2.213-2.216H54.339C53.333,98.424,52.327,99.432,52.327,100.64z"/>
		<path fill="#F69346" d="M51.522,97.419c-0.403-0.201-0.604-0.805-0.403-1.209c0.806-1.608,2.818-2.213,3.02-2.213
			c2.415-0.604,5.233,1.207,5.837,1.609c1.408,0.604,3.42-0.402,4.226-1.005c3.421-2.215,7.044,0,7.245,0
			c3.421,2.013,6.441,0.2,6.642,0.2c4.83-2.615,9.056,0,9.66,0.402c2.214,1.006,3.019,0.202,4.427-0.603
			c1.611-1.007,3.624-2.215,7.044,0c0.403,0.2,0.403,0.805,0.202,1.207c-0.202,0.401-0.806,0.401-1.208,0.201
			c-2.415-1.611-3.623-0.806-5.232,0c-1.408,1.006-3.623,2.214-6.038,0.604c0,0-4.025-2.617-8.051-0.404
			c-0.201,0-4.227,2.214-8.453-0.2c-0.202-0.201-3.019-1.812-5.434-0.201c-0.202,0-3.421,2.213-6.038,1.007
			c-0.202,0-3.019-1.813-4.428-1.409c-0.403,0.2-1.61,0.604-2.013,1.409C52.327,97.016,51.925,97.419,51.522,97.419z"/>
	</g>
</g>
</svg>
